<?xml version="1.0" standalone="no"?>
<!DOCTYPE svg PUBLIC "-//W3C//DTD SVG 1.1//EN" "http://www.w3.org/Graphics/SVG/1.1/DTD/svg11.dtd" >
<svg xmlns="http://www.w3.org/2000/svg">
<metadata></metadata>
<defs>
<font id="kawoszehmedium" horiz-adv-x="1433" >
<font-face units-per-em="2048" ascent="1516" descent="-532" />
<missing-glyph horiz-adv-x="808" />
<glyph unicode="fb" horiz-adv-x="983" d="M0 0v983h983v-983h-983z" />
<glyph unicode="&#xfb01;" horiz-adv-x="1073" d="M-55 -324q0 44 32 75.5t76 31.5q46 0 77.5 -31.5t31.5 -75.5q0 -106 45 -106q29 0 52.5 37t23.5 117q0 65 -24.5 119t-76.5 77v954q0 53 -26 65.5t-107 12.5v31q83 0 108 9t25 52v72q0 192 162 320q50 39 135 59.5t178 20.5q82 0 151 -16t101 -44q53 -50 56 -119 q0 -44 -32.5 -76t-76.5 -32t-76 32t-32 76q0 64 -56.5 102t-136.5 38q-106 0 -188 -64q-48 -39 -77.5 -99.5t-29.5 -121.5q0 -90 64.5 -149.5t199.5 -59.5v-31q-123 0 -150.5 -11t-27.5 -67v-1036q0 -58 -6 -104.5t-22 -90t-42 -72.5t-66.5 -46t-94.5 -17q-67 0 -118.5 56 t-51.5 112zM618 852v35l156 82q30 18 76 18q38 0 63 -16.5t25 -52.5v-836q0 -7 4.5 -14t10.5 -11.5t17 -9t17.5 -6.5t18 -5.5t14.5 -4.5v-31h-143q-46 0 -74.5 28t-28.5 74v740q0 57 -43 57q-27 0 -57 -18z" />
<glyph unicode="&#xfb02;" horiz-adv-x="989" d="M-55 -324q0 44 32 75.5t76 31.5q46 0 77.5 -31.5t31.5 -75.5q0 -106 45 -106q29 0 52.5 37t23.5 117q0 65 -24.5 119t-76.5 77v954q0 53 -26 65.5t-107 12.5v31q83 0 108 9t25 52v99q0 76 10.5 133t36.5 103.5t74.5 71t118.5 24.5h354q37 0 61.5 -17.5t24.5 -54.5v-1321 q0 -7 4.5 -14t10.5 -11.5t17 -9t17.5 -6.5t18 -5.5t14.5 -4.5v-31h-143q-46 0 -74.5 28t-28.5 74v1225q0 41 -18.5 68t-36 35t-29.5 8q-4 0 -7 -2.5t-4 -5.5t-3.5 -10t-3.5 -11q-11 -33 -39 -53.5t-63 -20.5t-64.5 21.5t-40.5 54.5q-10 27 -16 29q-5 0 -14 -1.5t-31 -12.5 t-39 -29.5t-31 -56.5t-14 -89q0 -49 13.5 -93t43.5 -85t87.5 -65.5t135.5 -24.5v-31q-123 0 -150.5 -11t-27.5 -67v-1036q0 -58 -6 -104.5t-22 -90t-42 -72.5t-66.5 -46t-94.5 -17q-67 0 -118.5 56t-51.5 112z" />
<glyph unicode="&#xfb03;" horiz-adv-x="1644" d="M-55 -324q0 44 32 75.5t76 31.5q46 0 77.5 -31.5t31.5 -75.5q0 -106 45 -106q29 0 52.5 37t23.5 117q0 65 -24.5 119t-76.5 77v954q0 53 -26 65.5t-107 12.5v31q83 0 108 9t25 52v99q0 76 10.5 133t36.5 103.5t74.5 71t118.5 24.5q91 0 147 -50q53 -50 56 -118 q0 -44 -32.5 -76.5t-76.5 -32.5t-76 32.5t-32 76.5q0 54 -22 80t-52 26q-48 0 -69 -48t-21 -108q0 -37 8 -73t28 -73t50.5 -65t80.5 -45.5t113 -17.5h97q83 0 108 9t25 52v72q0 63 18.5 121t48 99.5t53 66.5t46.5 43q90 70 264 70q54 0 104 -7.5t104 -26t87.5 -58.5 t36.5 -97q0 -44 -32.5 -76t-76.5 -32t-76.5 32t-32.5 76q0 68 -56.5 111t-135.5 43q-120 0 -196 -87.5t-76 -197.5q0 -92 64.5 -152.5t197.5 -60.5v-31q-123 0 -150.5 -11t-27.5 -67v-1036q0 -73 -11 -129t-36 -103.5t-71.5 -72.5t-113.5 -25t-118.5 56t-51.5 112 q0 44 32.5 75.5t76.5 31.5q45 0 76.5 -31.5t31.5 -75.5q0 -106 45 -106q29 0 52.5 37t23.5 117q0 65 -24 119t-76 77v954q0 53 -26 65.5t-107 12.5h-97q-123 0 -150.5 -11t-27.5 -67v-1036q0 -58 -6 -104.5t-22 -90t-42 -72.5t-66.5 -46t-94.5 -17q-67 0 -118.5 56 t-51.5 112zM1169 852v35l156 82q30 18 76 18q38 0 63 -16.5t25 -52.5v-836q0 -7 4.5 -14t10.5 -11.5t17 -9t17.5 -6.5t18 -5.5t14.5 -4.5v-31h-144q-46 0 -74 28t-28 74v740q0 57 -43 57q-27 0 -57 -18z" />
<glyph unicode="&#xfb04;" horiz-adv-x="1560" d="M-55 -324q0 44 32 75.5t76 31.5q46 0 77.5 -31.5t31.5 -75.5q0 -106 45 -106q29 0 52.5 37t23.5 117q0 65 -24.5 119t-76.5 77v954q0 53 -26 65.5t-107 12.5v31q83 0 108 9t25 52v140q0 64 11 113.5t36.5 91.5t74 64t118.5 22q91 0 147 -50q53 -50 56 -118 q0 -44 -32.5 -76.5t-76.5 -32.5t-76 32.5t-32 76.5q0 54 -22 80t-52 26q-31 0 -51 -20q-16 -16 -27.5 -54t-11.5 -82q0 -37 8 -73t28 -73t50.5 -65t80.5 -45.5t113 -17.5h97q83 0 108 9t25 52v99q0 76 10.5 132.5t36 103.5t74 71.5t118.5 24.5h355q37 0 61.5 -17.5 t24.5 -54.5v-1321q0 -7 4.5 -14t10.5 -11.5t17 -9t17.5 -6.5t18 -5.5t14.5 -4.5v-31h-144q-46 0 -74 28t-28 74v1225q0 41 -18.5 68t-36 35t-29.5 8q-3 0 -5 -1t-3.5 -2.5t-3 -5t-2.5 -6t-2.5 -7l-2.5 -7.5q-11 -33 -39 -53.5t-63 -20.5t-64 21.5t-40 54.5q-9 29 -17 29 q-5 0 -14.5 -1.5t-31 -12.5t-39 -30t-31 -58.5t-13.5 -92.5q0 -47 14.5 -90.5t45 -83.5t87.5 -64t134 -24v-31q-123 0 -150.5 -11t-27.5 -67v-1036q0 -73 -11 -129t-36 -103.5t-71.5 -72.5t-113.5 -25t-118.5 56t-51.5 112q0 44 32.5 75.5t76.5 31.5q45 0 76.5 -31.5 t31.5 -75.5q0 -106 45 -106q29 0 52.5 37t23.5 117q0 65 -24 119t-76 77v954q0 53 -26 65.5t-107 12.5h-97q-123 0 -150.5 -11t-27.5 -67v-1036q0 -58 -6 -104.5t-22 -90t-42 -72.5t-66.5 -46t-94.5 -17q-67 0 -118.5 56t-51.5 112z" />
<glyph horiz-adv-x="2048" />
<glyph horiz-adv-x="2048" />
<glyph unicode="&#xd;" horiz-adv-x="2048" />
<glyph unicode=" "  horiz-adv-x="808" />
<glyph unicode="&#x09;" horiz-adv-x="808" />
<glyph unicode="&#xa0;" horiz-adv-x="808" />
<glyph unicode="!" horiz-adv-x="352" d="M61 1360q0 55 34 85t81 30t81 -30t34 -85q0 -115 -26.5 -335.5t-26.5 -430.5q0 -18 10 -72t10 -84q0 -39 -23.5 -60.5t-56.5 -21.5t-58.5 22t-25.5 60q0 31 10.5 83t10.5 73q0 210 -27 429t-27 337zM68 59q0 44 32 76.5t76 32.5t76.5 -32.5t32.5 -76.5t-32.5 -76 t-76.5 -32t-76 32t-32 76z" />
<glyph unicode="&#x22;" horiz-adv-x="544" d="M41 1243q0 47 23 78t65 31q47 0 78 -23t31 -65q0 -54 -40 -184t-69 -130q-26 0 -57 118.5t-31 174.5zM307 1243q0 47 23 78t65 31q47 0 78 -23t31 -65q0 -54 -40 -184t-69 -130q-26 0 -57 118.5t-31 174.5z" />
<glyph unicode="#" horiz-adv-x="1017" d="M61 371v30h203l92 318h-219v31h228l18 63q31 121 31 166q0 36 -15 66t-36.5 50.5t-43 40.5t-36.5 45.5t-15 55.5q0 42 31.5 74t77.5 32q63 0 87.5 -42.5t24.5 -116.5q0 -108 -73 -363l-21 -71h353l153 540h33l-156 -540h178v-31h-186l-92 -318h203v-30h-211l-39 -135 q-31 -121 -31 -166q0 -36 15 -66t36 -50.5t42.5 -40.5t36.5 -45.5t15 -55.5q0 -43 -31 -75t-77 -32q-42 0 -68.5 24t-35.5 56t-9 72q0 51 13 123q17 102 61 247l41 144h-352l-178 -627h-33l180 627h-195zM297 401h350l90 318h-350z" />
<glyph unicode="$" horiz-adv-x="933" d="M41 240q0 43 32.5 75.5t76.5 32.5q38 0 68 -24t30 -84q0 -98 43 -146.5t143 -58.5v606l-16 6q-121 49 -176 88q-150 105 -150 285q0 76 21 134.5t53.5 94t79 58.5t92 32.5t96.5 10.5v84h31v-84q89 -1 158 -19.5t106 -43.5t60.5 -56t30.5 -52.5t7 -37.5q0 -43 -31 -75 t-75 -32q-40 0 -74.5 24.5t-34.5 59.5q0 5 3 31.5t3 50.5q0 71 -36.5 94t-116.5 25v-514q64 -26 110.5 -48t111 -64t105.5 -86t71 -110.5t30 -142.5q0 -179 -102.5 -266.5t-282.5 -87.5h-43v-123h-31v125q-150 11 -271.5 82.5t-121.5 155.5zM186 1057q0 -47 20 -85t59.5 -67 t76.5 -47.5t92 -40.5v500q-53 -2 -94.5 -14.5t-78 -40.5t-56 -80t-19.5 -125zM465 33q14 -2 45 -2q141 0 217 75t76 216q0 44 -23.5 86t-56.5 72.5t-82.5 61t-88.5 49t-87 38.5v-596z" />
<glyph unicode="%" horiz-adv-x="1312" d="M41 53l1208 1209l23 -21l-1211 -1208zM61 1053q0 128 87 213.5t200 85.5q112 0 199.5 -85.5t87.5 -213.5t-87.5 -213.5t-199.5 -85.5q-113 0 -200 85.5t-87 213.5zM164 1143q0 -82 36.5 -164t93.5 -134t114 -52q45 0 83.5 43t38.5 131q0 79 -34 159.5t-91 133.5t-116 53 q-46 0 -85.5 -41.5t-39.5 -128.5zM678 274q0 128 87 213.5t200 85.5q112 0 199 -85.5t87 -213.5t-87 -213.5t-199 -85.5q-113 0 -200 85.5t-87 213.5zM780 365q0 -82 36.5 -164.5t93.5 -134.5t114 -52q45 0 84 43.5t39 130.5q0 79 -34.5 160t-91.5 134t-116 53 q-46 0 -85.5 -41.5t-39.5 -128.5z" />
<glyph unicode="&#x26;" horiz-adv-x="1138" d="M29 418q0 125 71.5 230t192.5 159l-68 111q-67 108 -67 192q0 81 60.5 137.5t149.5 80.5t197 24q142 0 253.5 -72.5t111.5 -175.5q0 -44 -32.5 -75.5t-76.5 -31.5q-38 0 -73 27.5t-35 89.5q0 31 -0.5 48t-3.5 42.5t-8.5 39.5t-16.5 31t-27 25.5t-40.5 14.5t-55.5 6 q-242 0 -242 -139q0 -56 35.5 -131.5t102.5 -184.5l424 -692q6 5 17 16.5t17 16.5q62 65 62 139q0 32 -9.5 58t-23.5 43t-28 32.5t-23.5 36t-9.5 45.5q0 48 33.5 78.5t74.5 30.5t76 -32.5t35 -102.5q0 -185 -164 -349q-6 -6 -41 -36l49 -80q23 -39 80 -39h31v-31h-178 q-39 0 -73.5 18.5t-43.5 36.5l-8 11q-146 -62 -297 -62q-75 0 -138.5 17.5t-106.5 45t-76.5 65.5t-53 76t-32 79.5t-17 72.5t-4.5 58zM180 475q0 -122 61 -218t155 -145t198 -49q72 0 145 27l-422 680q-69 -47 -103 -126.5t-34 -168.5z" />
<glyph unicode="'" horiz-adv-x="278" d="M41 1243q0 47 23 78t65 31q47 0 78 -23t31 -65q0 -54 -40 -184t-69 -130q-26 0 -57 118.5t-31 174.5z" />
<glyph unicode="(" horiz-adv-x="712" d="M41 549q0 247 85 466t230.5 353.5t315.5 144.5v-43q-117 -12 -208 -87t-146.5 -196.5t-84 -274.5t-28.5 -330q0 -152 32.5 -307t90.5 -285.5t148 -217.5t196 -98v-43q-124 9 -237.5 77.5t-201 184.5t-140 287t-52.5 369z" />
<glyph unicode=")" horiz-adv-x="712" d="M41 -324q117 12 208 87t146.5 197t84 275t28.5 330q0 152 -32.5 307t-90.5 285.5t-148 217.5t-196 98v43q124 -9 237.5 -77.5t201 -184.5t140 -287t52.5 -369q0 -247 -85 -466t-230.5 -354t-315.5 -145v43z" />
<glyph unicode="*" horiz-adv-x="516" d="M16 1163q0 15 11 28t36 13q28 0 68.5 -15t66.5 -31l27 -15q-14 62 -14 119q0 90 49 90q45 0 45 -90q0 -25 -3.5 -55t-7.5 -47l-3 -17q99 61 162 61q25 0 36 -13t11 -28q0 -29 -48 -48.5t-96 -24.5l-47 -5q13 -11 31.5 -29t50 -60t31.5 -68q0 -18 -12 -28.5t-27 -10.5 q-28 0 -59.5 40t-48.5 80l-17 40l-7.5 -17.5t-18.5 -38t-28 -48.5t-33.5 -38.5t-37.5 -17.5q-15 0 -27 10.5t-12 28.5q0 26 28 65.5t56 65.5l29 26q-8 0 -21 1.5t-45.5 7t-58 13.5t-46 23t-20.5 33z" />
<glyph unicode="+" horiz-adv-x="983" d="M82 717v31h225q89 0 126.5 37.5t37.5 125.5v236h31v-236q0 -88 38 -125.5t126 -37.5h235v-31h-233q-90 0 -128 -37.5t-38 -126.5v-225h-31v225q0 89 -37.5 126.5t-126.5 37.5h-225z" />
<glyph unicode="," horiz-adv-x="348" d="M61 59q0 45 32 77t77 32q55 0 90 -47.5t35 -102.5q0 -75 -61.5 -145.5t-143.5 -79.5l-4 31q25 3 44.5 22.5t19.5 47.5q0 24 -14 44t-30.5 32.5t-30.5 36t-14 52.5z" />
<glyph unicode="-" horiz-adv-x="614" d="M82 717v31h450v-31h-450z" />
<glyph unicode="." horiz-adv-x="339" d="M61 59q0 44 32.5 76.5t76.5 32.5t76.5 -32.5t32.5 -76.5t-32.5 -76t-76.5 -32t-76.5 32t-32.5 76z" />
<glyph unicode="/" horiz-adv-x="1458" d="M39 -231q0 68 104 202q15 19 32 38t40.5 43.5t36.5 38t45.5 45.5t42.5 42l772 772q73 73 101 117t28 82q0 21 -18.5 86t-18.5 86q0 43 30.5 76t76.5 33q44 0 77 -32.5t33 -76.5q0 -66 -102 -193q-55 -69 -174 -188l-770 -770q-92 -92 -126 -140.5t-34 -92.5 q0 -36 20.5 -90t20.5 -74q0 -42 -31.5 -76.5t-74.5 -34.5t-77 31.5t-34 75.5z" />
<glyph unicode="0" horiz-adv-x="1263" d="M49 676q0 136 50.5 262.5t132 216t189 143.5t218.5 54t218.5 -54t189 -143.5t132 -216t50.5 -262.5t-50.5 -262.5t-132 -216t-189 -143.5t-218.5 -54t-218.5 54t-189 143.5t-132 216t-50.5 262.5zM193 799q0 -130 36.5 -250t95 -207t130 -153t143.5 -99t133 -33t122.5 31 t114.5 89.5t86 156.5t33 219q0 127 -35.5 245t-93.5 206t-130 154t-146.5 100t-140.5 34q-61 0 -121 -31t-111.5 -89.5t-83.5 -155.5t-32 -217z" />
<glyph unicode="1" horiz-adv-x="487" d="M14 1214v35l156 84q44 19 78 19h178v-33h-31q-29 0 -45 -10.5t-16 -26.5v-1282h-164v1212q0 50 -43 50q-21 0 -55 -17z" />
<glyph unicode="2" horiz-adv-x="1042" d="M47 0v31h37q57 0 80 39l489 796q47 76 64.5 106.5t35 83t17.5 105.5q0 160 -268 160q-107 0 -150 -57.5t-43 -159.5q0 -44 -32 -75.5t-76 -31.5t-76.5 31.5t-32.5 75.5q0 67 63.5 125.5t156.5 90.5t186 32q82 0 158.5 -15t141 -45t103.5 -80.5t39 -115.5q0 -79 -61 -178 l-537 -863h8q12 0 93 -15t151 -15q45 0 78.5 11.5t52 29t32 39.5t24.5 44t23.5 39.5t34 29t52.5 11.5q40 0 74 -31.5t34 -78.5q0 -36 -20.5 -61.5t-48 -38t-72 -19.5t-74.5 -8.5t-73 -1.5q-41 0 -193 8q-66 6 -125 15.5t-71 9.5t-41 -11.5t-58 -11.5h-176z" />
<glyph unicode="3" horiz-adv-x="929" d="M78 240q0 58 33 99.5t84 41.5q45 0 76.5 -31.5t31.5 -77.5q0 -38 -26.5 -75.5t-26.5 -65.5q0 -48 60 -74t153 -26q43 1 81.5 9t80 29t71 53t49 85.5t19.5 122.5q0 95 -29 181.5t-70.5 144t-88 101t-82 63.5t-52.5 20q-13 0 -20.5 7t-7.5 17q0 11 7.5 19t20.5 8 q84 0 130 63t46 150q0 86 -46.5 150.5t-127.5 64.5q-96 0 -144 -24t-48 -66q0 -29 28.5 -71.5t28.5 -78.5q0 -45 -31.5 -76.5t-76.5 -31.5q-51 0 -84 41.5t-33 99.5q0 39 19 78.5t59 77t114.5 61t172.5 23.5q138 0 232.5 -73.5t94.5 -184.5q0 -115 -98 -224 q99 -67 160 -178.5t61 -240.5q0 -195 -128.5 -323t-307.5 -128q-98 0 -172.5 19.5t-113.5 47t-63 63.5t-30 61.5t-6 48.5z" />
<glyph unicode="4" horiz-adv-x="958" d="M20 317q0 17 27 56l387 614q3 0 10.5 -1t10.5 -1q56 0 107 44t77.5 97t26.5 91q0 23 -11.5 41t-29.5 18q-19 0 -37.5 -19t-32 -41.5t-40 -41.5t-60.5 -19q-44 0 -76.5 32.5t-32.5 76.5q0 60 53 94.5t117 34.5q68 0 126 -58t58 -147q0 -84 -84 -219l-411 -652h432v486 q19 25 55 85.5t63.5 98t45.5 37.5v-707h123v-30h-123v-287h-164v287h-557q-60 0 -60 30z" />
<glyph unicode="5" horiz-adv-x="1028" d="M88 240q0 58 33 99.5t84 41.5q45 0 76.5 -31.5t31.5 -77.5q0 -37 -26.5 -74.5t-26.5 -64.5q0 -47 57.5 -74.5t155.5 -27.5q40 1 77.5 8.5t80 28t73.5 52.5t51.5 87t20.5 127q0 99 -38 200.5t-97 176.5t-132 122.5t-140 47.5q-29 0 -56 -11t-54 -35t-44.5 -71t-21.5 -111 v2h-93v680q0 19 35 19q21 0 78 -15l182 -55q127 -31 172 -31q36 0 65 14.5t49 35.5t39 42t43.5 35.5t53.5 14.5q45 0 77 -33.5t32 -75.5q0 -44 -32 -78t-112 -34q-110 0 -379 77l-139 41v-407q100 59 203 59q82 0 162 -39.5t142 -105t100 -157.5t38 -191q0 -130 -60 -234 t-159 -160.5t-217 -56.5q-98 0 -172.5 19.5t-113.5 47t-63 63.5t-30 61.5t-6 48.5z" />
<glyph unicode="6" horiz-adv-x="1001" d="M70 492v286q0 127 39 236.5t102 182.5t143 114t162 41q161 0 289 -95q27 -22 43 -37.5t31 -41.5t16 -54q0 -44 -32.5 -76t-76.5 -32t-76 32t-32 76q0 93 -46.5 144t-115.5 53q-76 0 -135 -31t-95 -80.5t-59 -118.5t-31.5 -137.5t-9.5 -146.5q59 65 138.5 100t167.5 35 q112 0 217 -55t175 -160.5t70 -234.5q0 -132 -64.5 -246.5t-166 -180t-211.5 -65.5q-111 0 -212.5 65.5t-165.5 180t-64 246.5zM203 608q0 -106 41 -209t102 -175t133 -116.5t133 -44.5q89 0 145 92.5t56 229.5q0 118 -39.5 216t-100.5 157.5t-129 92t-130 32.5 q-96 0 -153.5 -74t-57.5 -201z" />
<glyph unicode="7" horiz-adv-x="1005" d="M-41 1241q0 70 61 97.5t170 27.5q61 0 146 -13.5t135 -13.5q31 0 95.5 6t97.5 7h239v-33h-39q-23 0 -33 -8t-20 -29l-207 -451q-66 -143 -87 -254t-21 -323v-254h-164v262q0 58 6.5 108.5t13 85t29.5 93.5t36 89t55 119t65 140l155 342q6 9 6 21q0 49 -155 49 q-70 0 -112 0.5t-52.5 0.5t-19.5 0.5t-21 0.5q-60 0 -95.5 -18.5t-49.5 -44.5t-24.5 -52t-33 -44.5t-63.5 -18.5q-45 0 -79 29.5t-34 78.5z" />
<glyph unicode="8" horiz-adv-x="974" d="M61 354q0 210 271 338q-195 110 -195 328q0 77 26.5 137.5t67.5 96t96 59t104.5 31.5t100.5 8q57 0 108.5 -15t98 -47.5t74 -92.5t27.5 -140q0 -100 -72 -175t-178 -124q54 -25 97.5 -50t92.5 -63t82 -79t54.5 -96t21.5 -116q0 -90 -34 -159.5t-93.5 -111t-135 -62.5 t-163.5 -21q-95 0 -174 20t-142.5 60.5t-99 110.5t-35.5 163zM184 416q0 -81 60 -159.5t151 -126.5t180 -48q157 0 222 49.5t65 159.5q0 36 -19 72.5t-44.5 65t-69.5 60t-76.5 51.5t-84.5 45t-74 35t-62 27l-61 27q-89 -40 -138 -99t-49 -159zM215 1087q0 -172 277 -288 l57 -23q101 43 144.5 91t43.5 128q0 62 -33.5 117.5t-82.5 90.5t-101.5 55t-93.5 20t-65.5 -2t-56 -12.5t-48.5 -30t-29 -56.5t-12 -90z" />
<glyph unicode="9" horiz-adv-x="1007" d="M61 860q0 132 64.5 246.5t166.5 180t212 65.5q111 0 212.5 -65.5t165.5 -180t64 -246.5v-287q0 -127 -39 -236.5t-102 -182t-143 -113.5t-162 -41q-153 0 -265 74.5t-114 152.5q0 44 32 76.5t76 32.5t76.5 -32.5t32.5 -76.5q0 -93 46.5 -143.5t115.5 -52.5q76 0 135 31 t94 80t57.5 118.5t31 137.5t9.5 145q-59 -63 -137.5 -98t-165.5 -35q-66 0 -133 20.5t-126 60.5t-104.5 93.5t-72.5 125t-27 150.5zM203 967q0 -116 39 -214t100 -158t129 -93t131 -33q96 0 153.5 74.5t57.5 199.5q0 106 -41 209t-102.5 175t-133.5 116.5t-133 44.5 q-88 0 -144 -92t-56 -229z" />
<glyph unicode=":" horiz-adv-x="339" d="M61 59q0 44 32.5 76.5t76.5 32.5t76.5 -32.5t32.5 -76.5t-32.5 -76t-76.5 -32t-76.5 32t-32.5 76zM61 895q0 44 32.5 76.5t76.5 32.5t76.5 -32.5t32.5 -76.5t-32.5 -76.5t-76.5 -32.5t-76.5 32.5t-32.5 76.5z" />
<glyph unicode=";" horiz-adv-x="348" d="M61 59q0 45 32 77t77 32q54 0 89.5 -48t35.5 -102q0 -73 -55 -139q-67 -77 -150 -86l-4 31q25 3 44.5 22.5t19.5 47.5q0 24 -14 44t-30.5 32.5t-30.5 36t-14 52.5zM61 895q0 44 32.5 76.5t76.5 32.5t76.5 -32.5t32.5 -76.5t-32.5 -76.5t-76.5 -32.5t-76.5 32.5 t-32.5 76.5z" />
<glyph unicode="&#x3c;" horiz-adv-x="813" d="M41 561l246 248l174 174q43 43 95.5 72.5t98.5 29.5q49 0 80 -32.5t31 -77.5q0 -48 -33 -79.5t-71 -31.5q-20 0 -74 29t-88 29q-35 0 -77 -31t-126 -115q-109 -109 -109 -215q0 -96 95 -199l331 -331l-20 -23l-307 307z" />
<glyph unicode="=" horiz-adv-x="901" d="M82 594v31h737v-31h-737zM82 840v30h737v-30h-737z" />
<glyph unicode="&#x3e;" horiz-adv-x="802" d="M37 147q0 48 33 79.5t71 31.5q20 0 74 -28.5t88 -28.5q35 0 77.5 31t125.5 114q108 108 108 215q0 97 -94 199l-332 332l21 22l307 -307l246 -246l-246 -248l-174 -174q-42 -42 -95.5 -72t-99.5 -30q-49 0 -79.5 32.5t-30.5 77.5z" />
<glyph unicode="?" horiz-adv-x="825" d="M61 1235q0 25 7 51.5t31.5 62t64 62t113 45.5t169.5 19q142 0 230 -51.5t88 -155.5q0 -39 -18 -69.5t-46.5 -52t-63 -42.5t-69 -46.5t-63 -58t-46.5 -84t-18 -116.5q0 -38 21.5 -96t21.5 -101v-4q0 -35 -19.5 -54.5t-47.5 -19.5q-27 0 -46.5 19.5t-19.5 54.5 q0 104 25.5 197.5t61.5 161t72 127t61.5 120.5t25.5 117q0 36 -15 61.5t-40 37.5t-49 17t-50 5q-101 0 -155 -27.5t-54 -71.5q0 -28 27 -65.5t27 -75.5q0 -45 -32 -76.5t-77 -31.5q-51 0 -84 41.5t-33 99.5zM303 59q0 44 32.5 76.5t76.5 32.5t76 -32.5t32 -76.5t-32 -76 t-76 -32t-76.5 32t-32.5 76z" />
<glyph unicode="@" horiz-adv-x="1810" d="M51 367q0 53 10 125q26 171 116.5 327t220.5 269t296.5 180t337.5 67q155 0 291 -55.5t231.5 -151.5t150 -229t54.5 -283q0 -115 -36 -231t-89 -198.5t-115 -134.5t-114 -52h-143q-41 0 -64.5 22.5t-23.5 59.5q0 14 2 20l4 23q-160 -125 -349 -125q-185 0 -304 119 t-119 299q0 36 6 74q20 133 102.5 246t205.5 179t257 66q183 0 303.5 -120t120.5 -298q0 -35 -6 -73l-62 -416v-8q0 -37 76 -37q43 0 98 48.5t104 126t82.5 188t33.5 220.5q0 193 -89.5 350.5t-250.5 249t-361 91.5q-221 0 -424.5 -109t-341 -296t-170.5 -408 q-8 -55 -8 -119q0 -145 52 -273t143 -220t222 -145.5t283 -53.5q252 0 478 139l12 -25q-232 -145 -494 -145q-156 0 -291.5 55.5t-231.5 150.5t-151 228t-55 283zM565 506q0 -90 30 -167t76 -126.5t101.5 -84.5t105.5 -50t89 -15q86 0 151 62.5t96 155t31 196.5 q0 90 -29 166.5t-73.5 126t-99.5 84.5t-105 50.5t-92 15.5q-87 0 -152.5 -62.5t-97 -155t-31.5 -196.5z" />
<glyph unicode="A" horiz-adv-x="1193" d="M16 96q0 34 21.5 65t54.5 44q71 30 110 58.5t71.5 83.5t60.5 151l246 817q-12 6 -54 6h-16v31h180q69 0 78 -47l389 -1305h-178l-150 502h-460q-33 -114 -76 -279q-6 -26 -16 -54.5t-31 -71.5t-54.5 -70t-74.5 -27q-44 0 -72.5 28t-28.5 68zM377 532h442l-217 748z" />
<glyph unicode="B" horiz-adv-x="1161" d="M72 0v29h26q27 0 48.5 7.5t21.5 20.5v1239q0 31 -70 31h-26v31h168q17 -10 41 -10q6 0 133 10q96 14 184 14q61 0 114.5 -11.5t101.5 -38.5t82.5 -68t54.5 -104t20 -142q0 -69 -52.5 -136.5t-117.5 -97.5q62 -13 118 -43t103.5 -76.5t75.5 -116t28 -151.5 q0 -195 -123.5 -292t-336.5 -97q-5 0 -50 5.5t-110.5 11t-118.5 5.5q-103 0 -147 -20h-168zM332 49q50 4 76 4q60 0 148 -11.5t103 -12.5q82 0 143.5 28.5t96 76.5t50.5 103t16 117q0 69 -22 136.5t-62.5 124t-107 91.5t-148.5 35h-293v-692zM332 782q289 0 375 2 q48 2 85 69.5t37 156.5q0 77 -28.5 139t-77.5 100t-110.5 58t-131.5 20q-16 0 -74.5 -4.5t-74.5 -5.5v-535z" />
<glyph unicode="C" horiz-adv-x="1312" d="M47 676q0 137 53.5 262.5t144 216t216 144t262.5 53.5q158 0 258 -36.5t180 -96.5q27 -22 43 -38t31 -42t16 -54q0 -45 -31.5 -76.5t-76.5 -31.5q-44 0 -76.5 32t-32.5 76q0 104 -78.5 170t-232.5 66q-54 0 -108.5 -9.5t-117 -31t-115 -62t-96 -97.5t-68.5 -143.5 t-25 -193.5q0 -122 33.5 -230t88.5 -185t123.5 -138.5t141.5 -98.5t139 -56t119 -19q39 0 81 9.5t94 32.5t101 72.5t84 119.5l45 -47q-94 -114 -229.5 -179t-290.5 -65q-137 0 -262.5 53.5t-216 144t-144 216t-53.5 262.5z" />
<glyph unicode="D" horiz-adv-x="1390" d="M72 0v29h26q27 0 48.5 7.5t21.5 20.5v1233q0 31 -70 31h-26v31h168q19 -11 82 -11q76 0 188 11.5t188 11.5q177 0 327.5 -92t237.5 -247t87 -335q0 -145 -53.5 -274t-144.5 -220t-215.5 -143.5t-262.5 -52.5q-65 0 -130 10t-138 10q-122 0 -166 -20h-168zM332 49 q14 2 80 2q72 0 147.5 -10t126.5 -10q133 0 268 65q129 62 189.5 191t60.5 286q0 107 -25 204.5t-67.5 170.5t-98.5 135t-116.5 104.5t-123 72t-118 43.5t-100.5 14q-120 0 -170 -3t-53 -3v-1262z" />
<glyph unicode="E" horiz-adv-x="1140" d="M72 0v31h26q70 0 70 30v1229q0 31 -70 31h-26v31h168q21 -9 79 -9q72 0 204 11.5t202 11.5h54.5t56.5 -3t59 -7.5t51 -14t45 -23t27.5 -35t11.5 -48.5q0 -45 -31.5 -77t-76.5 -32q-27 0 -52.5 13.5t-40.5 36.5q-5 7 -13 19q-48 71 -76 93q-50 39 -148 39 q-22 0 -62.5 -2.5t-99.5 -7t-98 -6.5v-451h313v-31h-313v-788q28 -1 138.5 -8.5t141.5 -7.5q64 0 110.5 15t69 37t41.5 48t31.5 48t36.5 37t57 15q46 0 78.5 -31.5t32.5 -76.5q0 -73 -73 -102t-208 -29q-92 0 -225 10q-135 12 -231 12q-73 0 -92 -8h-168z" />
<glyph unicode="F" horiz-adv-x="1105" d="M37 1321v31h168q21 -9 92 -9q56 0 211 11.5t237 11.5q30 0 51.5 -0.5t54.5 -3.5t56 -7.5t49 -14.5t42 -23.5t27 -34.5t11 -47q0 -48 -33.5 -78.5t-76.5 -30.5q-55 0 -90 50q-22 32 -32.5 46.5t-29.5 36.5t-34 31t-38.5 19.5t-52 14t-65.5 3.5q-20 0 -127 -7t-160 -9v-451 h315v-31h-315v-829h-164v1290q0 31 -70 31h-26z" />
<glyph unicode="G" horiz-adv-x="1347" d="M47 676q0 137 53.5 262.5t144 216t216 144t262.5 53.5q100 0 188.5 -19.5t148.5 -49.5t104.5 -66t65 -70t21.5 -62q0 -44 -32 -76t-76 -32t-76.5 32t-32.5 76q0 104 -78.5 170t-232.5 66q-153 0 -283 -66q-129 -63 -188 -190t-59 -281q0 -104 25 -198t66.5 -166 t96.5 -132.5t115.5 -102.5t122.5 -71.5t117.5 -43t101.5 -13.5q107 0 198 56v358q0 31 -69 31h-234v30h518v-30q-51 0 -51 -31v-471h-164v78q-141 -78 -313 -78q-137 0 -262.5 53.5t-216 144t-144 216t-53.5 262.5z" />
<glyph unicode="H" horiz-adv-x="1236" d="M37 1321v31h174q37 0 61.5 -17t24.5 -53v-750h668v801q38 19 75 19t61.5 -17t24.5 -53v-1282h-161v502h-668v-502h-164v1290q0 31 -70 31h-26z" />
<glyph unicode="I" horiz-adv-x="610" d="M57 168q0 44 32 75t77 31q46 0 77 -31t31 -75q0 -55 22 -81t54 -26q46 0 66 45.5t20 108.5q0 65 -24 119.5t-76 77.5v878q0 31 -70 31h-108v31h256q37 0 61.5 -17.5t24.5 -52.5v-952q0 -121 -20 -177t-58 -94q-59 -59 -160 -59q-96 0 -149 47q-53 57 -56 121z" />
<glyph unicode="J" horiz-adv-x="499" d="M-55 -324q0 44 32 75.5t76 31.5q46 0 77.5 -31.5t31.5 -75.5q0 -55 22 -80.5t54 -25.5q46 0 66 45.5t20 108.5q0 65 -24.5 119t-76.5 77v1370q0 31 -69 31h-86v31h233q37 0 61.5 -17.5t24.5 -52.5v-1444q0 -120 -20 -176t-58 -94q-60 -60 -159 -60q-96 0 -150 48 q-52 56 -55 120z" />
<glyph unicode="K" horiz-adv-x="1253" d="M37 1321v31h174q38 0 63 -17t25 -53v-518l631 551q49 39 100 39q37 0 72 -29.5t35 -79.5q0 -47 -31 -77.5t-68 -30.5q-14 0 -58 13t-77 13q-85 0 -192 -82l-189 -163l592 -846q10 -18 33 -29.5t47 -11.5h20v-31h-145q-26 0 -43 2t-46.5 18t-53.5 46l-529 743l-98 -86 v-723h-164v1290q0 31 -72 31h-26z" />
<glyph unicode="L" horiz-adv-x="1107" d="M70 1321v31h174q37 0 61.5 -17t24.5 -53v-1241q66 -3 129.5 -7t94.5 -5.5t56 -1.5q58 0 95.5 7.5t67.5 30t47 44t48 67.5q32 49 93 49q45 0 76.5 -31.5t31.5 -76.5q0 -44 -27 -72.5t-76 -40t-87 -15t-91 -3.5q-92 0 -225 10q-135 12 -231 12q-73 0 -92 -8h-168v31h26 q68 0 68 30v1229q0 31 -70 31h-26z" />
<glyph unicode="M" horiz-adv-x="1681" d="M23 96q0 31 16 59.5t45 45.5q44 26 66.5 41t48.5 40t39 53t24 71t17 102l75 737l-18 37q-18 37 -70 37h-37v33h179q83 0 124 -74l390 -760l389 797q-12 6 -54 6h-16v31h186q30 0 50 -12t20 -35l141 -1305h-178l-135 1280l-391 -799q-30 -57 -80 -86q-23 -13 -55 -20 l-420 821l-84 -827q-4 -44 -6.5 -62t-8 -61t-11 -64t-15 -55.5t-21.5 -52.5t-28 -37.5t-37.5 -28t-46.5 -8.5q-43 0 -70.5 27.5t-27.5 68.5z" />
<glyph unicode="N" horiz-adv-x="1355" d="M16 106q0 33 12 54.5t31 34t42 24.5t45.5 31.5t41.5 48.5t31 82.5t12 126.5v737l-22 37q-18 37 -72 37h-8h-31v33h176q87 0 132 -74l692 -1124v872q0 190 37 260q9 22 35 44t65 22q45 0 76.5 -32t31.5 -77q0 -60 -53 -92q-35 -23 -52.5 -35.5t-40 -32.5t-32.5 -39 t-20 -48t-13.5 -65.5t-3.5 -86.5v-740l21 -34q20 -39 82 -39h31v-31h-179q-41 0 -73.5 18.5t-45.5 37.5l-12 18l-690 1122v-885q0 -39 -1.5 -68t-5.5 -68.5t-13 -68t-23.5 -55t-37.5 -40t-54 -13.5q-46 0 -78.5 31.5t-32.5 76.5z" />
<glyph unicode="O" d="M47 676q0 137 53.5 262.5t144 216t216 144t262.5 53.5q138 0 263.5 -53.5t215.5 -144t143.5 -216t53.5 -262.5t-53.5 -262.5t-143.5 -216t-215.5 -144t-263.5 -53.5q-137 0 -262.5 53.5t-216 144t-144 216t-53.5 262.5zM193 784q0 -105 25 -199.5t67 -166t98 -132.5 t116 -102.5t122.5 -70.5t117 -42.5t99.5 -13.5q53 0 108 15.5t111.5 54t99.5 95t70.5 146t27.5 199.5q0 146 -48 270.5t-121 206t-163 139.5t-172 83.5t-149 25.5q-83 0 -157 -34.5t-130 -97.5t-89 -160.5t-33 -215.5z" />
<glyph unicode="P" horiz-adv-x="1159" d="M37 1321v31h168q19 -11 84 -11q80 0 202.5 12.5t174.5 12.5q199 0 312.5 -134.5t113.5 -344.5q0 -98 -26 -185t-76.5 -156.5t-134 -110t-189.5 -40.5q-79 0 -145.5 24.5t-105 60.5t-59 73.5t-20.5 67.5q0 41 31 41q15 0 27 -24.5t27.5 -59t40.5 -69t77.5 -59t126.5 -24.5 q77 0 136.5 26t94.5 71t52.5 102t17.5 123q0 134 -57 266.5t-155.5 219.5t-207.5 87q-55 0 -250 -10v-1311h-164v1290q0 31 -70 31h-26z" />
<glyph unicode="Q" d="M47 676q0 137 53.5 262.5t144 216t216 144t262.5 53.5q138 0 263.5 -53.5t215.5 -144t143.5 -216t53.5 -262.5q0 -217 -124.5 -391t-322.5 -246q44 -55 71.5 -129t27.5 -143q0 -77 -37 -130t-94 -53q-49 0 -80 33.5t-31 75.5q0 27 15.5 51t37.5 43t43.5 39t37 47t15.5 59 q0 44 -40 97q-98 -29 -195 -29q-137 0 -262.5 53.5t-216 144t-144 216t-53.5 262.5zM193 784q0 -405 358 -632q83 28 154 28q136 0 223 -112q37 8 78 28q128 63 188.5 190t60.5 281q0 123 -33.5 231t-89.5 185t-125 138t-143 97.5t-140.5 55t-121.5 18.5q-83 0 -156.5 -34 t-130 -96.5t-89.5 -160t-33 -217.5zM586 131q132 -74 254 -74q19 0 51 4q-79 89 -193 89q-47 0 -112 -19z" />
<glyph unicode="R" horiz-adv-x="1204" d="M37 1321v31h168q19 -11 80 -11q80 0 200 12.5t172 12.5q132 0 229.5 -63.5t147 -171t49.5 -244.5q0 -167 -73.5 -279.5t-210.5 -148.5l266 -387q10 -19 32.5 -30t47.5 -11h20v-31h-143h-4q-88 0 -144 66l-266 376h-266v31h291q162 0 242.5 82t80.5 213q0 93 -34.5 192.5 t-91 179t-134.5 130.5t-159 51q-45 0 -240 -10v-1311h-164v1290q0 31 -70 31h-26z" />
<glyph unicode="S" horiz-adv-x="1017" d="M59 231q0 46 32.5 78.5t76.5 32.5q36 0 67 -23t31 -79q0 -215 314 -215q142 0 222.5 78.5t80.5 218.5q0 32 -14 62.5t-34.5 54.5t-55 49t-62.5 42t-72 38t-69 31t-66.5 26.5t-52.5 21.5q-121 49 -176 88q-150 105 -150 285q0 78 23 138.5t59 97.5t86 60.5t98.5 32.5 t100.5 9q95 0 170 -15t118.5 -37t72 -51.5t38.5 -55t10 -50.5q0 -43 -31 -75t-75 -32q-40 0 -74.5 24.5t-34.5 59.5q0 16 4 34t4 36q0 34 -11 58.5t-28 38.5t-44 21.5t-53 10t-62 2.5q-56 0 -102.5 -13t-87.5 -42t-64 -83.5t-23 -131.5q0 -40 16 -74t42.5 -59t62 -46 t73.5 -38t78 -33q14 -5 21 -8q50 -20 80 -33.5t83.5 -40.5t88 -50.5t77 -60t67 -73t42 -85.5t17.5 -102q0 -179 -107.5 -269.5t-287.5 -90.5q-124 0 -242 28.5t-197.5 84.5t-79.5 124z" />
<glyph unicode="T" horiz-adv-x="1165" d="M-57 1278q0 45 32.5 76.5t75.5 31.5q30 0 54 -14.5t41.5 -35t36.5 -41.5t48 -35.5t66 -14.5q62 0 213 43q24 7 72.5 20.5t68.5 18.5t58 15.5t56 14.5t47 10t48 8.5t40.5 4.5t41.5 2q154 0 154 -112q0 -47 -33.5 -77t-77.5 -30q-30 0 -55 15t-43 36.5t-37 43t-46.5 36.5 t-60.5 15q-43 0 -161 -31v-1278h-164v1229q-215 -64 -324 -64q-86 0 -118.5 34t-32.5 79z" />
<glyph unicode="U" horiz-adv-x="1171" d="M37 1321v31h172q38 0 63 -17t25 -53v-1139q0 -55 41 -55q25 0 55 18l488 259v901q0 33 17.5 59.5t57.5 26.5q38 0 63 -17t25 -53v-1200q0 -7 4.5 -14t10.5 -11.5t17 -9t17.5 -6.5t18 -5.5t14.5 -4.5v-31h-143q-46 0 -74 28t-28 74v228l-586 -312q-30 -18 -76 -18 q-37 0 -61.5 17t-24.5 53v1220q0 31 -70 31h-26z" />
<glyph unicode="V" horiz-adv-x="1153" d="M-41 1321v31h152q34 0 67 -23t53 -76l363 -1181q119 61 215 180q65 76 112 165.5t70 171t33 145.5t10 116q0 148 -66 225.5t-171 77.5q-41 0 -70 28.5t-29 69.5q0 45 35.5 82t83.5 37t100.5 -48.5t81.5 -92.5q88 -131 88 -293q0 -161 -65.5 -355.5t-190.5 -347.5 q-145 -176 -309 -223q-40 -12 -86 -12l-389 1294q-4 20 -20 24.5t-52 4.5h-16z" />
<glyph unicode="W" horiz-adv-x="1667" d="M-41 1321v31h152q82 0 120 -99l363 -1181q117 60 217 180q31 40 43 57l-295 983q-3 20 -19 24.5t-53 4.5h-16v31h152q81 0 120 -99l363 -1181q117 60 217 180q65 79 112 168t70 169t33 143t10 116q0 148 -67 226.5t-172 78.5q-41 0 -70 28.5t-29 69.5q0 45 35.5 82 t83.5 37q79 0 182 -141q88 -129 88 -299q0 -157 -64.5 -352t-188.5 -345q-70 -86 -151.5 -143.5t-158.5 -79.5q-46 -12 -88 -12l-84 276q-25 -35 -30 -41q-70 -86 -151.5 -143.5t-158.5 -79.5q-46 -12 -88 -12l-389 1294q-3 20 -19 24.5t-53 4.5h-16z" />
<glyph unicode="X" horiz-adv-x="1337" d="M66 106q0 44 32 76.5t76 32.5q62 -4 78 -4q74 0 116.5 41t123.5 186l104 199l-397 647q-19 37 -80 37h-27v31h176q69 0 121 -72l311 -502l101 197q87 159 131 221q106 156 186 156q44 0 76.5 -32.5t32.5 -76.5t-32.5 -76t-76.5 -32q-21 -1 -49 -1t-41.5 -0.5t-33.5 -3.5 t-32 -10t-29 -19.5t-33 -33t-36 -50t-45 -71.5l-100 -196l418 -682q16 -37 69 -37h37v-31h-168q-41 0 -65.5 12t-61.5 58l-334 536l-104 -198q-101 -185 -143 -248q-110 -162 -193 -162q-45 0 -76.5 31.5t-31.5 76.5z" />
<glyph unicode="Y" horiz-adv-x="1148" d="M-55 1321v31h176q69 0 121 -72l311 -502l100 197q87 159 131 221q106 156 187 156q44 0 76 -32.5t32 -76.5t-32 -76t-76 -32q-21 -1 -49 -1t-41.5 -0.5t-33.5 -3.5t-32 -10t-29 -19.5t-33 -33t-36 -50t-45 -71.5l-101 -196v-750h-161v700l-359 584q-19 37 -78 37h-28z " />
<glyph unicode="Z" horiz-adv-x="1318" d="M43 0v31h31q60 0 80 39q742 1204 757 1226q-52 2 -195.5 12.5t-183.5 10.5q-67 0 -114.5 -15t-70.5 -37t-42 -48.5t-30.5 -48.5t-35 -37t-57.5 -15q-45 0 -76.5 33t-31.5 78q0 37 22.5 64t61.5 41t82 20t94 6q132 0 335 -16.5t279 -16.5q25 25 80 25h178v-33h-39 q-55 0 -73 -37l-756 -1229h43q59 -3 226 -15.5t190 -12.5q52 0 91.5 11.5t62.5 29t40.5 39.5t30 44t26 39.5t35 29t50.5 11.5q44 0 76 -33t32 -77q0 -40 -22.5 -66.5t-66 -39.5t-91 -18t-113.5 -5q-77 0 -229 8q-297 25 -369 25q-52 0 -75 -11.5t-56 -11.5h-176z" />
<glyph unicode="[" horiz-adv-x="342" d="M41 -369v1885h260v-31h-27q-69 0 -69 -31v-1761q0 -31 69 -31h27v-31h-260z" />
<glyph unicode="\" horiz-adv-x="1458" d="M39 1321q0 41 32.5 75t78.5 34q49 0 77.5 -32.5t28.5 -76.5q0 -25 -18.5 -86t-18.5 -86q0 -38 28 -82t101 -117l772 -772q10 -10 42.5 -42t45.5 -45.5t36.5 -38t40.5 -43.5t32 -38q104 -134 104 -202q0 -44 -33.5 -75.5t-76.5 -31.5t-75 34.5t-32 76.5q0 20 20.5 74 t20.5 90q0 44 -34 92.5t-126 140.5l-770 770q-119 119 -174 188q-102 127 -102 193z" />
<glyph unicode="]" horiz-adv-x="342" d="M41 -338h27q69 0 69 31v1761q0 31 -69 31h-27v31h260v-1885h-260v31z" />
<glyph unicode="^" horiz-adv-x="698" d="M41 1044l307 308l309 -308l-32 -10l-125 125q-76 76 -152 76t-149 -76l-125 -125z" />
<glyph unicode="_" horiz-adv-x="962" d="M41 -502h881v-30h-881v30z" />
<glyph unicode="`" horiz-adv-x="434" d="M41 1372q0 43 32 75t79 32q63 0 119.5 -49t89 -124t32.5 -153h-39q0 53 -40 85t-87 32q-9 0 -31 -3t-32 -3q-68 0 -95.5 35.5t-27.5 72.5z" />
<glyph unicode="a" horiz-adv-x="1091" d="M39 256q0 32 22.5 63.5t53.5 47.5l620 329q-35 65 -83.5 112.5t-99.5 71t-95.5 34t-85.5 10.5q-63 0 -87 -22t-24 -66q0 -23 7 -66t7 -57q0 -45 -32 -77t-76 -32q-45 0 -77 32t-32 77q0 31 31 75.5t83.5 88.5t135.5 75t172 31q100 0 190.5 -39t157 -104.5t105.5 -156.5 t39 -191v-410q0 -7 4.5 -14t10.5 -11.5t17 -9t17.5 -6.5t18 -5.5t14.5 -4.5v-31h-144q-46 0 -74 28t-28 74v27q-145 -129 -336 -129q-91 0 -168 22t-124 53.5t-80 68.5t-46.5 65.5t-13.5 46.5zM197 319q0 -51 54.5 -111.5t145.5 -104.5t181 -44q58 0 103 20t72 52t44 76 t23.5 87.5t6.5 92.5q0 84 -20 162t-55 123l-508 -273q-21 -10 -34 -32.5t-13 -47.5z" />
<glyph unicode="b" horiz-adv-x="1144" d="M-10 1337v35l155 84q44 19 78 19q37 0 61.5 -17.5t24.5 -54.5v-545q64 58 160 91.5t193 33.5q139 0 241.5 -65.5t152.5 -172.5t50 -239q0 -237 -118 -371.5t-312 -134.5q-99 0 -203.5 53t-163.5 142v-195h-164v1327q0 57 -43 57q-28 0 -55 -18zM287 528 q0 -125 31.5 -219.5t76 -145.5t104 -82t104 -39.5t87.5 -8.5q68 0 121 22t85 57t53 83t28.5 95t7.5 99q0 107 -35 198.5t-88.5 151t-118.5 102t-123.5 61t-105.5 18.5q-54 0 -95.5 -25.5t-66 -64.5t-39.5 -93.5t-20.5 -104.5t-5.5 -104z" />
<glyph unicode="c" horiz-adv-x="970" d="M27 492q0 133 67.5 246t182 179t247.5 66q196 0 322 -94q27 -22 43 -37.5t31 -41.5t16 -54q0 -44 -32.5 -76.5t-76.5 -32.5t-76 32.5t-32 76.5q0 94 -55 144t-140 52q-70 0 -109 -9t-116 -46q-63 -35 -96 -117.5t-33 -185.5q0 -110 37 -203t92.5 -151.5t122.5 -100 t124 -59t99 -17.5q80 0 155 62t103 117l21 -27q-67 -100 -174.5 -157.5t-231.5 -57.5q-133 0 -246 66t-179 179.5t-66 246.5z" />
<glyph unicode="d" horiz-adv-x="1120" d="M29 492q0 102 26 188t80 155t146 108.5t215 39.5q190 0 333 -127v473q0 55 -45 55q-23 0 -55 -16l-55 -31v35l155 84q38 19 76 19q37 0 62.5 -18t25.5 -54v-1321q0 -7 4.5 -14t10.5 -11.5t17 -9t17.5 -6.5t18 -5.5t14.5 -4.5v-31h-143q-46 0 -74.5 28t-30.5 74v62 q-85 -75 -161 -119.5t-160 -44.5q-221 0 -349 125t-128 367zM164 618q0 -113 33 -205t82.5 -148.5t111.5 -95t116.5 -54t100.5 -15.5q56 0 99 23t69 60t43 88t23 101.5t6 106.5q0 83 -14.5 152.5t-38 117t-56.5 84t-67.5 58t-74 35t-72.5 18t-66 4.5q-295 0 -295 -330z" />
<glyph unicode="e" horiz-adv-x="987" d="M29 492q0 133 67.5 246t182.5 179t249 66q90 0 167 -22t124 -53.5t80.5 -68.5t47.5 -66t14 -46q0 -32 -22.5 -63.5t-53.5 -47.5l-621 -331q72 -95 173.5 -158.5t209.5 -63.5q45 0 89.5 20.5t78 51.5t55 57.5t35.5 49.5l21 -29q-67 -99 -174 -156t-232 -57 q-133 0 -246.5 66.5t-179 180t-65.5 245.5zM172 594q0 -72 19.5 -153t56.5 -130l508 271q21 10 34 32.5t13 47.5q0 34 -31 79t-81.5 86t-124 69t-148.5 28q-64 0 -112.5 -27t-77 -74t-42.5 -104.5t-14 -124.5z" />
<glyph unicode="f" horiz-adv-x="735" d="M-55 -324q0 44 32 75.5t76 31.5q46 0 77.5 -31.5t31.5 -75.5q0 -106 45 -106q29 0 52.5 37t23.5 117q0 65 -24.5 119t-76.5 77v954q0 53 -26 65.5t-107 12.5v31q83 0 108 9t25 52v99q0 76 10.5 133t36.5 103.5t74.5 71t118.5 24.5q91 0 147 -50q53 -50 56 -118 q0 -44 -32.5 -76.5t-76.5 -32.5t-76 32.5t-32 76.5q0 54 -22 80t-52 26q-34 0 -55 -27t-28 -61t-7 -74q0 -49 13.5 -93t43.5 -85t87.5 -65.5t135.5 -24.5v-31q-123 0 -150.5 -11t-27.5 -67v-1036q0 -58 -6 -104.5t-22 -90t-42 -72.5t-66.5 -46t-94.5 -17q-67 0 -118.5 56 t-51.5 112z" />
<glyph unicode="g" horiz-adv-x="1079" d="M39 492q0 102 26 188t80 155t146 108.5t215 39.5q191 0 332 -125v43q0 33 17.5 59.5t57.5 26.5q38 0 63 -16.5t25 -52.5v-74v-228q0 -134 -1 -219t-5.5 -194.5t-13.5 -178t-24.5 -150t-38.5 -130t-56 -99.5t-76.5 -77t-100.5 -43t-128 -17q-143 0 -259 72t-116 174 q0 44 32.5 75.5t76.5 31.5t76 -31.5t32 -75.5q0 -36 2 -60t11 -56t25.5 -51.5t48 -33.5t75.5 -14q45 0 82 8.5t63.5 21t48 35t35 42.5t23 51t14.5 53.5t7.5 57t3 55t0.5 53.5v248q-85 -75 -161.5 -119.5t-160.5 -44.5q-221 0 -349 125t-128 367zM174 618q0 -113 33 -205 t82.5 -148.5t111.5 -95t116.5 -54t100.5 -15.5q56 0 99 23t69 60t43 88t23 101.5t6 106.5q0 116 -33 208.5t-88.5 148.5t-124 85t-143.5 29q-295 0 -295 -332z" />
<glyph unicode="h" horiz-adv-x="1085" d="M-10 1337v35l155 84q38 19 76 19q37 0 62.5 -18t25.5 -54v-701l492 263q30 18 78 18q37 0 61.5 -17t24.5 -53v-831q0 -7 4.5 -14t10.5 -11.5t17 -9t17.5 -6.5t18 -5.5t14.5 -4.5v-31h-144q-46 0 -74 28t-28 74v736q0 57 -43 57q-28 0 -58 -18l-391 -209v-668h-164v1329 q0 55 -45 55q-23 0 -55 -16z" />
<glyph unicode="i" horiz-adv-x="489" d="M35 848v35l155 82q30 18 76 18q38 0 63 -17t25 -53v-831q0 -7 4.5 -14t10.5 -11.5t17 -9t17.5 -6.5t18 -5.5t14.5 -4.5v-31h-143q-46 0 -74.5 28t-28.5 74v736q0 57 -43 57q-27 0 -57 -18zM162 1370q0 44 32 76.5t76 32.5t76.5 -32.5t32.5 -76.5t-32.5 -76t-76.5 -32 t-76 32t-32 76z" />
<glyph unicode="j" horiz-adv-x="495" d="M-39 -324q0 44 32.5 75.5t76.5 31.5q46 0 77 -31.5t31 -75.5q0 -106 45 -106q29 0 52.5 37t23.5 117q0 65 -24 119t-76 77v924q0 49 -43 49q-24 0 -56 -16l-57 -31v35l156 84q41 18 77 18q37 0 61.5 -17.5t24.5 -52.5v-1075q0 -58 -6 -104.5t-22 -90t-42 -72.5t-66.5 -46 t-94.5 -17q-67 0 -118.5 56t-51.5 112zM168 1368q0 44 32 76.5t76 32.5t76.5 -32.5t32.5 -76.5t-32.5 -76t-76.5 -32t-76 32t-32 76z" />
<glyph unicode="k" horiz-adv-x="1175" d="M-10 1337v35l155 84q38 19 76 19t63 -18t25 -54v-696l492 262q35 18 80 18q53 0 80.5 -34t27.5 -74q0 -44 -32 -76.5t-76 -32.5q-18 0 -45 16t-64 32t-80 16q-70 0 -157 -41l405 -574l96 -147q10 -18 33 -29.5t47 -11.5h21v-31h-144q-53 0 -82 14q-34 15 -63 52l-461 649 l-78 -43v-672h-164v1329q0 55 -45 55q-23 0 -55 -16z" />
<glyph unicode="l" horiz-adv-x="440" d="M-6 1337v35l156 84q44 19 77 19q37 0 61.5 -18t24.5 -54v-1321q0 -7 4.5 -14t10.5 -11.5t17 -9t17.5 -6.5t18 -5.5t14.5 -4.5v-31h-143q-46 0 -74 28t-28 74v1227q0 55 -44 55q-26 0 -55 -16z" />
<glyph unicode="m" horiz-adv-x="1501" d="M16 848v35l156 82q30 18 76 18q39 0 63.5 -17t24.5 -53v-141l360 193q30 18 78 18q37 0 60.5 -17t23.5 -53v-141l363 193q30 18 73 18q37 0 61.5 -18t24.5 -54v-829q0 -7 4.5 -14t10.5 -11.5t17 -9t17.5 -6.5t18 -5.5t14.5 -4.5v-31h-143q-46 0 -74 28t-28 74v736 q0 57 -41 57q-26 0 -56 -18l-262 -140v-737h-164v838q0 57 -41 57q-28 0 -55 -18l-262 -140v-737h-164v838q0 57 -43 57q-27 0 -57 -18z" />
<glyph unicode="n" horiz-adv-x="1112" d="M16 848v35l156 82q35 18 78 18q37 0 61.5 -17t24.5 -53v-211l491 263q35 18 78 18q37 0 61.5 -17t24.5 -53v-831q0 -7 4.5 -14t10.5 -11.5t17 -9t17.5 -6.5t18 -5.5t14.5 -4.5v-31h-143q-46 0 -74.5 28t-28.5 74v736q0 57 -43 57q-28 0 -55 -18l-393 -209v-668h-164v838 q0 57 -43 57q-28 0 -55 -18z" />
<glyph unicode="o" horiz-adv-x="1062" d="M29 492q0 133 65.5 246t178.5 179t247 66q133 0 246.5 -66t179.5 -179t66 -246q0 -100 -39 -191.5t-105.5 -157t-157 -104.5t-190.5 -39q-134 0 -247 66t-178.5 179t-65.5 247zM170 596q0 -109 37 -202t92 -152t121.5 -101t124 -60t100.5 -18q59 0 104 29.5t70 78.5 t37 103.5t12 112.5q0 106 -34.5 197.5t-87 151.5t-117 103t-124 62t-108.5 19q-52 0 -93 -21t-65.5 -54t-40.5 -77.5t-22 -86.5t-6 -85z" />
<glyph unicode="p" horiz-adv-x="1183" d="M16 872v35l156 84q44 19 78 19q37 0 61.5 -17.5t24.5 -54.5v-80q64 58 160 91.5t192 33.5q139 0 241.5 -65.5t153 -172.5t50.5 -239q0 -237 -118.5 -371.5t-312.5 -134.5q-99 0 -203 53t-163 142v-687h-164v1354q0 58 -43 58q-27 0 -55 -19zM313 528q0 -91 16.5 -166 t43 -125t63 -88.5t73 -59.5t77.5 -34.5t71.5 -17.5t59.5 -4q68 0 121 22t85 57t53 83t28.5 95t7.5 99q0 107 -35 198.5t-88.5 151t-118.5 102t-123.5 61t-105.5 18.5q-54 0 -95.5 -25.5t-66 -65t-40 -93.5t-21 -104t-5.5 -104z" />
<glyph unicode="q" horiz-adv-x="1079" d="M39 492q0 102 26 188t80 155t146 108.5t215 39.5q191 0 332 -125v43q0 33 17.5 59.5t57.5 26.5q38 0 64.5 -17t26.5 -52v-1264q0 -57 43 -57q28 0 55 18l57 31v-35l-155 -84q-44 -19 -78 -19q-37 0 -61.5 17t-24.5 53v584q-42 -35 -73 -58.5t-74.5 -50t-87.5 -40 t-89 -13.5q-221 0 -349 125t-128 367zM174 618q0 -113 33 -205t82.5 -148.5t111.5 -95t116.5 -54t100.5 -15.5q56 0 99 23t69 60t43 88t23 101.5t6 106.5q0 83 -14.5 152.5t-38 117t-56.5 84t-67.5 58t-74 35t-72.5 18t-66 4.5q-295 0 -295 -330z" />
<glyph unicode="r" horiz-adv-x="813" d="M16 848v35l156 82q30 18 76 17q38 0 63 -16.5t25 -52.5v-280q64 118 115 194q48 70 90 109q55 47 96 46q44 0 76 -32t32 -76q0 -45 -31.5 -76.5t-76.5 -31.5q-21 -1 -49 -1t-41.5 -0.5t-33.5 -3.5t-32 -10t-29 -19.5t-33 -33.5t-36 -51t-45 -72q-2 -6 -2 -22v-553h-164 v838q0 57 -43 57q-27 0 -57 -18z" />
<glyph unicode="s" horiz-adv-x="837" d="M47 190q0 43 31.5 76t75.5 33q41 0 69.5 -25.5t28.5 -64.5q0 -28 2 -47t13.5 -46t31.5 -43.5t59.5 -29t94.5 -12.5q125 0 193.5 51t68.5 141q0 46 -21 74.5t-79 56.5t-181 68q-72 24 -126.5 49.5t-105.5 62t-78.5 85.5t-27.5 108q0 75 36 129.5t93.5 81t112 38 t108.5 11.5q72 0 143.5 -23t124 -71t52.5 -109q0 -42 -27 -74t-67 -32q-46 0 -83.5 24t-37.5 60q0 5 3 30.5t3 47.5q0 65 -30.5 90.5t-82.5 25.5q-25 0 -53 -4t-65.5 -17.5t-66 -34t-49 -59t-20.5 -87.5q0 -26 21.5 -51t48.5 -42.5t75.5 -37.5t78 -30t80.5 -26 q46 -15 80.5 -29.5t80.5 -42t75.5 -59.5t51 -81.5t21.5 -108.5q0 -40 -12.5 -75t-42.5 -67.5t-76 -56t-118 -37.5t-163 -14t-161 19t-108 49t-56.5 62t-18.5 64z" />
<glyph unicode="t" horiz-adv-x="561" d="M18 952v31q59 0 103 17.5t70 44t43 66.5t24 75.5t10 81.5h92v-224q0 -43 25 -52t109 -9v-31q-81 0 -107.5 -12.5t-26.5 -65.5v-792q0 -7 4.5 -14t10.5 -11.5t17 -9t17.5 -6.5t18 -5.5t14.5 -4.5v-31h-143q-46 0 -74 28t-28 74v772q0 56 -27.5 67t-151.5 11z" />
<glyph unicode="u" horiz-adv-x="1112" d="M16 846v35l156 84q30 18 78 18h6q35 0 57.5 -17.5t22.5 -52.5v-770q0 -55 41 -55q27 0 57 18l393 209v582q0 32 19 59t59 27q86 0 86 -70v-831q0 -9 5.5 -16t16.5 -12.5t19.5 -8.5t23 -7t17.5 -5v-33h-143q-46 0 -74.5 28t-28.5 74v179l-491 -263q-34 -18 -78 -18 q-37 0 -61.5 17t-24.5 53v770q0 55 -43 55q-25 0 -55 -18z" />
<glyph unicode="v" horiz-adv-x="1138" d="M-12 952v31h147q15 0 30 -4t26 -10t21.5 -14.5t18 -16.5t14.5 -17.5t10.5 -15.5t6.5 -13l4 -7l332 -826q110 31 215 99q105 65 169.5 153t64.5 191q-8 76 -32 131t-51.5 83t-68 44t-67.5 19.5t-64 4.5q-45 0 -77 32t-32 77t31.5 76.5t77.5 31.5q35 0 82.5 -34t70.5 -59.5 t41 -47.5q119 -155 119 -358q0 -114 -68.5 -208t-179.5 -163q-98 -61 -205 -96t-182 -35l-362 924q-3 10 -8.5 16.5t-18 8.5t-20 2.5t-27.5 0.5h-18z" />
<glyph unicode="w" horiz-adv-x="1652" d="M-12 952v31h147q42 0 82 -31q27 -24 49 -67l332 -826q110 31 215 99q10 5 64 43l-281 723q-4 14 -16.5 20.5t-23 7t-36.5 0.5h-18v31h147q48 0 82 -31q32 -29 49 -67l332 -826q110 31 215 99q105 65 169.5 153t64.5 191q-8 76 -32 131t-51.5 83t-68 44t-67.5 19.5 t-64 4.5q-44 0 -76.5 32.5t-32.5 76.5t32.5 76t76.5 32q35 0 83 -34t75 -62.5t39 -44.5q116 -156 116 -358q0 -114 -68.5 -208t-179.5 -163q-98 -61 -205 -96t-182 -35l-67 172q-50 -35 -60 -41q-98 -61 -205 -96t-182 -35l-362 924q-3 10 -8.5 16.5t-18 8.5t-20 2.5 t-27.5 0.5h-18z" />
<glyph unicode="x" horiz-adv-x="1062" d="M53 109q0 44 32.5 76t76.5 32q58 -4 76 -4q75 0 116 40t125 187l-289 475q-19 37 -77 37h-29v30h170q25 0 39.5 -2.5t37.5 -19t50 -49.5l188 -305q87 159 131 221q50 73 91 111q22 18 31 24.5t27 13.5t38 6q44 0 76 -32t32 -76t-32 -76t-76 -32q-21 -1 -49 -1t-42 -0.5 t-33.5 -3t-31.5 -9.5t-29 -19.5t-33 -33t-36 -50t-45 -71.5l311 -510q19 -37 80 -37h27v-31h-168q-40 0 -65.5 11.5t-63.5 58.5l-211 340q-91 -167 -144 -246q-109 -164 -192 -164q-44 0 -76.5 32.5t-32.5 76.5z" />
<glyph unicode="y" horiz-adv-x="1058" d="M18 846v35l154 82q38 20 78 20q37 0 61.5 -17t24.5 -53v-770q0 -57 43 -57q25 0 55 18l393 211v582q0 32 19 59t59 27q37 0 61.5 -17t24.5 -53v-239q0 -143 -1 -235t-5 -207.5t-12 -188t-22.5 -157t-35 -135.5t-51 -103t-70 -79t-91 -44t-115.5 -17q-143 0 -259 72 t-116 174q0 44 32.5 75.5t76.5 31.5t76 -31.5t32 -75.5q0 -36 2 -60t11 -56t25.5 -51.5t48 -33.5t75.5 -14q42 0 76.5 9t58.5 28.5t41.5 40t28 53.5t17.5 58t9.5 64t3 61.5t0.5 60.5v367l-491 -265q-32 -16 -76 -16q-38 0 -63 17t-25 53v768q0 55 -43 55q-26 0 -55 -16z" />
<glyph unicode="z" horiz-adv-x="1050" d="M59 0v31h27q14 0 24.5 1t18.5 3.5t13 4.5t9.5 7t6 6.5t4.5 7.5t4 7l518 843q2 2 2 7q0 9 -28.5 15t-70.5 8.5t-71 3.5t-47 1q-83 0 -122.5 -30t-86.5 -123q-32 -52 -92 -52q-44 0 -76.5 33.5t-32.5 77.5q0 26 11 47t26.5 34.5t42.5 23t49.5 14t57 7t56 3.5t54.5 0 q99 0 211.5 -10t134.5 -10q35 0 43 8q25 14 66 14h170v-31h-29q-32 0 -48.5 -7.5t-29.5 -29.5l-520 -845q-10 -15 -26 -31q51 -3 99.5 -7t72 -5.5t41.5 -1.5q44 0 77.5 7t55.5 16.5t44.5 32.5t35 40t37.5 55q32 49 92 49q46 0 77 -31t31 -77q0 -63 -63 -97t-217 -34 q-84 0 -211.5 9t-182.5 9q-74 0 -90 -4h-168z" />
<glyph unicode="{" horiz-adv-x="524" d="M25 489q0 27 30 27q38 0 65 34.5t27 72.5q0 27 -16.5 76t-36.5 103t-36.5 157t-16.5 225q0 76 10.5 133t36.5 103.5t74.5 71t118.5 24.5q53 0 93.5 -15.5t62.5 -41.5t33 -54t13 -57q0 -44 -32 -76.5t-76 -32.5t-76.5 32.5t-32.5 76.5q0 54 -21.5 80t-51.5 26 q-22 0 -45 -14.5t-23 -46.5q0 -24 20 -82t40 -145.5t20 -182.5v-199q0 -116 -23 -184t-84 -108q61 -41 84 -110t23 -185v-197q0 -95 -20 -182.5t-40 -145.5t-20 -82q0 -32 23 -46.5t45 -14.5q30 0 51.5 26t21.5 80q0 44 32.5 76.5t76.5 32.5t76 -32.5t32 -76.5 q-2 -29 -13 -56.5t-33 -53.5t-62.5 -41.5t-93.5 -15.5q-57 0 -99 16.5t-69 45t-43 71.5t-22.5 90.5t-6.5 107.5q0 121 16.5 223.5t36.5 156.5t36.5 103t16.5 76q0 37 -27.5 72t-64.5 35q-17 0 -23.5 7.5t-6.5 16.5z" />
<glyph unicode="|" horiz-adv-x="245" d="M41 -532v2048h164v-2048h-164z" />
<glyph unicode="}" horiz-adv-x="524" d="M41 -365q0 44 32.5 76.5t76.5 32.5t76 -32.5t32 -76.5q0 -54 22 -80t52 -26q22 0 44.5 14.5t22.5 46.5q0 24 -20 82t-40 145.5t-20 182.5v197q0 116 23 185t84 110q-61 40 -84 108t-23 184v199q0 95 20 182.5t40 145.5t20 82q0 32 -22.5 46.5t-44.5 14.5q-30 0 -52 -26 t-22 -80q0 -44 -32 -76.5t-76 -32.5t-76.5 32.5t-32.5 76.5q3 69 55 118q56 50 148 50q102 0 162 -60q25 -26 39 -50t26 -80.5t12 -141.5q0 -122 -16.5 -225t-36.5 -157t-36.5 -103t-16.5 -76q0 -38 27 -72.5t65 -34.5q17 0 24 -8.5t7 -18.5q0 -8 -7 -16t-24 -8 q-36 0 -64 -35.5t-28 -71.5q0 -27 16.5 -76t36.5 -103t36.5 -156.5t16.5 -223.5q0 -122 -19.5 -177t-57.5 -95q-59 -59 -162 -59q-93 0 -148 49q-52 49 -55 118z" />
<glyph unicode="~" horiz-adv-x="1081" d="M41 754q0 53 54.5 104.5t136.5 83t161 31.5q93 0 151 -50t58 -157q0 -52 34 -85.5t79 -33.5t76.5 41.5t31.5 124.5v4q0 43 32.5 74t74.5 31q44 -1 75.5 -32.5t34.5 -74.5q0 -59 -55 -109.5t-135.5 -78t-161.5 -27.5q-92 0 -151.5 41t-59.5 125q0 72 -33.5 114t-78.5 42 q-41 0 -74 -40t-33 -130q0 -42 -32 -73.5t-74 -31.5q-44 0 -76 31t-35 76z" />
<glyph />
<glyph unicode="&#xa1;" horiz-adv-x="311" d="M41 66q0 118 26.5 357t26.5 449q0 21 -10 73t-10 83q0 38 25.5 60t58.5 22t56.5 -21.5t23.5 -60.5q0 -30 -10.5 -84t-10.5 -72q0 -210 26.5 -450.5t26.5 -355.5q0 -55 -33.5 -85t-80.5 -30t-81 30t-34 85zM47 1407q0 44 32.5 76.5t76.5 32.5t76 -32.5t32 -76.5t-32 -76.5 t-76 -32.5t-76.5 32.5t-32.5 76.5z" />
<glyph unicode="&#xa2;" horiz-adv-x="907" d="M41 655q0 127 62 239t160 179t204 74v207h31v-207q155 -3 278 -94q27 -22 43 -37.5t31 -41.5t16 -54q0 -44 -32 -76.5t-76 -32.5t-76.5 32.5t-32.5 76.5q0 91 -42.5 141t-108.5 55v-866q51 -23 92 -23q67 0 143 65t101 114l20 -27q-62 -94 -159.5 -152t-196.5 -63v-164 h-31v164q-107 5 -205 71.5t-159.5 179t-61.5 240.5zM182 762q0 -85 22.5 -162.5t54.5 -130t73.5 -97.5t73.5 -68.5t61 -39.5v852q-49 -2 -95.5 -19.5t-91 -55.5t-71.5 -110t-27 -169z" />
<glyph unicode="&#xa3;" horiz-adv-x="997" d="M63 788v31q83 0 108.5 9.5t25.5 52.5v139q0 53 7 96.5t28 89t55.5 76.5t93 50.5t137.5 19.5q53 0 93.5 -15.5t63 -41.5t33.5 -54t13 -57q0 -44 -32.5 -76.5t-76.5 -32.5t-76 32.5t-32 76.5q0 49 -31 74.5t-76 25.5q-41 0 -70.5 -16.5t-44.5 -44.5t-21.5 -57.5t-6.5 -61.5 q0 -41 10.5 -79t37 -76t67 -66.5t105.5 -46t147 -17.5v-31q-184 0 -222.5 -10.5t-38.5 -66.5v-670q21 -1 94 -7.5t109 -6.5q35 0 60.5 5t41.5 10.5t31.5 22t23.5 27.5t25.5 39t28.5 45q32 49 92 49q46 0 77.5 -31.5t31.5 -76.5q0 -43 -26.5 -71.5t-74 -40.5t-87 -15.5 t-91.5 -3.5q-60 0 -198 11t-170 11q-41 0 -60 -8h-168v31h27q70 0 70 30v650q0 53 -26 65t-108 12z" />
<glyph unicode="&#xa4;" horiz-adv-x="1081" d="M47 760q0 44 31.5 78t109.5 34q29 0 65 -5.5t66 -13t66.5 -19.5t57 -19.5t49 -18.5t30.5 -12q112 -36 148 -36q19 0 35.5 15t30.5 36t30 42.5t41 36.5t57 15q45 0 77 -33t32 -76t-32 -77.5t-107 -34.5q-36 0 -85 10.5t-77 19.5t-82.5 29t-57.5 21q-152 47 -182 47 q-26 0 -48 -23t-37 -50t-44 -50t-67 -23q-45 0 -76 32.5t-31 74.5z" />
<glyph unicode="&#xa5;" horiz-adv-x="1148" d="M-55 1321v31h176q69 0 121 -72l311 -502l100 197q87 159 131 221q106 156 187 156q44 0 76 -32.5t32 -76.5t-32 -76t-76 -32q-21 -1 -49 -1t-41.5 -0.5t-33.5 -3.5t-32 -10t-29 -19.5t-33 -33t-36 -50t-45 -71.5l-101 -196v-750h-161v700l-359 584q-19 37 -78 37h-28z " />
<glyph unicode="&#xa6;" horiz-adv-x="245" d="M41 242h164v-774h-164v774zM41 819v697h164v-697h-164z" />
<glyph unicode="&#xa7;" horiz-adv-x="1077" d="M61 522q0 67 21.5 122t57.5 90t75.5 57t83.5 34q-73 49 -112.5 130t-39.5 180q0 53 13 96.5t34.5 74t53 54t64.5 37t73 22.5t74.5 12t72.5 3q92 0 213 -37q113 -45 113 -137q0 -40 -29.5 -74.5t-76.5 -34.5q-39 0 -68.5 22.5t-30.5 59.5q-3 90 -50.5 128t-110.5 38 q-256 0 -256 -217q0 -41 7 -74t18 -57t30.5 -44t39.5 -33.5t51 -26.5t58 -21.5t67 -21.5q15 -5 23 -7q164 -52 226 -81q198 -92 245 -255q15 -54 15 -117q0 -117 -60.5 -196.5t-164.5 -116.5q139 -112 139 -295q0 -86 -32.5 -150.5t-91 -102.5t-133.5 -56.5t-167 -18.5 q-114 0 -270 54q-113 52 -113 135q0 42 31.5 76t76.5 34q36 0 63.5 -21.5t33.5 -57.5q23 -185 211 -185q144 0 225.5 64t81.5 192q0 33 -6.5 62t-16.5 52t-29 43.5t-36 35.5t-45 30t-49.5 25t-57 22t-59 19t-63.5 19.5t-64 19.5q-4 1 -30.5 9t-40.5 12.5t-44 16.5t-49 22.5 t-47.5 29.5t-46.5 38.5t-39 48t-33.5 60t-20.5 72t-8 86.5zM150 571q0 -70 15.5 -116.5t62 -78t77 -44t112.5 -38.5l27 -9q8 -3 52 -16.5t66.5 -21.5t61.5 -23.5t71.5 -32.5t62.5 -37q81 28 127.5 94.5t46.5 161.5q0 43 -10.5 78.5t-27 61.5t-45 49t-54.5 37.5t-66.5 30 t-70.5 25t-77 23.5t-75 24q-112 33 -166 62q-82 -16 -136 -70.5t-54 -159.5z" />
<glyph unicode="&#xa8;" horiz-adv-x="819" d="M41 1370q0 44 32.5 76.5t76.5 32.5t76 -32.5t32 -76.5t-32 -76t-76 -32t-76.5 32t-32.5 76zM561 1370q0 44 32.5 76.5t76.5 32.5t76 -32.5t32 -76.5t-32 -76t-76 -32t-76.5 32t-32.5 76z" />
<glyph unicode="&#xa9;" horiz-adv-x="1773" d="M61 653q0 168 65.5 321t176 263.5t263.5 176t321 65.5t321 -65.5t263.5 -176t175.5 -263.5t65 -321t-65 -321t-175.5 -263.5t-263.5 -175.5t-321 -65t-321 65t-263.5 175.5t-176 263.5t-65.5 321zM92 653q0 -161 63 -308t169.5 -253.5t254 -169.5t308.5 -63 q215 0 398 106.5t289.5 289.5t106.5 398q0 161 -63 308.5t-169.5 254t-253.5 169.5t-308 63t-308.5 -63t-254 -169.5t-169.5 -254t-63 -308.5zM395 655q0 99 40 190.5t107.5 157.5t159.5 105t191 39q195 0 321 -94q28 -23 43.5 -38t31 -41.5t16.5 -53.5q0 -44 -32.5 -76.5 t-76.5 -32.5t-76.5 32.5t-32.5 76.5q0 94 -55 144t-139 52q-59 0 -108.5 -9.5t-96 -34t-78.5 -64t-51.5 -103.5t-19.5 -147q0 -110 37 -203t92.5 -151.5t122.5 -100t124 -59t99 -17.5q80 0 155 62t103 117l20 -27q-67 -100 -174 -157.5t-231 -57.5q-133 0 -246.5 66 t-179.5 179t-66 246z" />
<glyph unicode="&#xab;" horiz-adv-x="583" d="M41 561l246 248l10 -33q-109 -109 -109 -215q0 -104 109 -213l-10 -33zM287 561l245 248l11 -33q-109 -109 -109 -215q0 -104 109 -213l-11 -33z" />
<glyph unicode="&#xad;" horiz-adv-x="614" d="M82 717v31h450v-31h-450z" />
<glyph unicode="&#xae;" horiz-adv-x="1773" d="M61 653q0 168 65.5 321t176 263.5t263.5 176t321 65.5t321 -65.5t263.5 -176t175.5 -263.5t65 -321t-65 -321t-175.5 -263.5t-263.5 -175.5t-321 -65t-321 65t-263.5 175.5t-176 263.5t-65.5 321zM92 653q0 -161 63 -308t169.5 -253.5t254 -169.5t308.5 -63 q215 0 398 106.5t289.5 289.5t106.5 398q0 161 -63 308.5t-169.5 254t-253.5 169.5t-308 63t-308.5 -63t-254 -169.5t-169.5 -254t-63 -308.5zM467 1194v25h135q18 -9 66 -9q45 0 153.5 9.5t141.5 9.5q159 0 250.5 -107t91.5 -276q0 -133 -59.5 -223t-168.5 -119l213 -309 q14 -33 64 -33h16v-25h-98h-21q-71 0 -114 51l-213 304h-213v24h233q130 0 194 65t64 169q0 105 -61 221q-51 98 -121.5 160.5t-153.5 62.5q-66 0 -190 -8v-1049h-131v1032q0 12 -17 18.5t-41 6.5h-20z" />
<glyph unicode="&#xaf;" horiz-adv-x="819" d="M82 1270v30h655v-30h-655z" />
<glyph unicode="&#xb0;" horiz-adv-x="352" d="M41 1245q0 57 39 97t96 40t96 -40t39 -97t-39 -95t-96 -38t-96 38t-39 95zM78 1255q0 -45 33 -75.5t82 -30.5q79 0 79 84q0 45 -32 77.5t-80 32.5q-82 0 -82 -88z" />
<glyph unicode="&#xb1;" horiz-adv-x="983" d="M82 758v30h225q89 0 126.5 38t37.5 126v236h31v-236q0 -88 38 -126t126 -38h235v-30h-233q-90 0 -128 -37.5t-38 -126.5v-225h-31v225q0 89 -37.5 126.5t-126.5 37.5h-225zM102 256v31h779v-31h-779z" />
<glyph unicode="&#xb4;" horiz-adv-x="438" d="M41 1153q0 78 32.5 153t89.5 124t120 49q47 0 78.5 -31.5t31.5 -75.5q0 -37 -27.5 -72.5t-95.5 -35.5q-10 0 -32 3t-31 3q-47 0 -87 -32t-40 -85h-39z" />
<glyph unicode="&#xb5;" horiz-adv-x="1112" d="M18 850v35l154 84q34 18 84 18q35 0 57.5 -17t22.5 -52v-697v-78q0 -55 41 -55q27 0 57 18l393 209v586q0 33 18.5 59.5t65.5 26.5q35 0 57.5 -17t22.5 -52v-836q0 -9 5.5 -16t16.5 -12.5t19.5 -8.5t23 -7t17.5 -5v-33h-143q-46 0 -74.5 28t-28.5 74v179l-491 -263v-510 h-164v562v321v453q0 55 -43 55q-25 0 -55 -18z" />
<glyph unicode="&#xb6;" horiz-adv-x="1177" d="M61 887q0 210 113.5 344.5t312.5 134.5q36 0 176 -12.5t201 -12.5q65 0 84 11h168v-31h-26q-70 0 -70 -31v-1782h-164v1801q-56 0 -203 10v-1811h-164v887h-2q-106 0 -189.5 40.5t-134 110t-76.5 156.5t-26 185zM158 936q0 -77 20 -145t59 -123t103.5 -87t146.5 -32h2 v776q-24 0 -45 -1.5t-56.5 -10t-64 -23t-60.5 -44t-54 -69t-36.5 -102t-14.5 -139.5z" />
<glyph unicode="&#xb8;" horiz-adv-x="344" d="M41 -362q0 36 20.5 56t49.5 28t57.5 15.5t49 25t20.5 49.5q0 29 -24 46t-56 17q-14 0 -25 -4t-12 -4q-10 0 -10 12q0 8 2 12l37 129h32l-32 -114h12q67 0 104 -44.5t37 -121.5q0 -88 -46.5 -149.5t-109.5 -61.5q-46 0 -76 33t-30 76z" />
<glyph unicode="&#xbb;" horiz-adv-x="583" d="M41 348q109 109 109 213q0 106 -109 215l10 33l246 -248l-246 -246zM287 348q108 108 108 213q0 107 -108 215l10 33l246 -248l-246 -246z" />
<glyph unicode="&#xbf;" horiz-adv-x="784" d="M20 199q0 39 18 69.5t46.5 52t63 42.5t69 46.5t63 58t46.5 84t18 116.5q0 38 -21.5 95.5t-21.5 100.5v4q0 35 20 54.5t48 19.5q27 0 46 -19.5t19 -54.5q0 -104 -25.5 -197.5t-61.5 -161t-72 -127t-61.5 -120.5t-25.5 -117q0 -36 15 -61.5t40 -37t48.5 -16.5t50.5 -5 q101 0 155 27t54 71q0 28 -26.5 65.5t-26.5 75.5q0 46 32 77.5t76 31.5q51 0 84 -41.5t33 -100.5q0 -25 -7 -51.5t-31.5 -61.5t-64 -62t-113 -45.5t-169.5 -18.5q-142 0 -230 51.5t-88 155.5zM264 1407q0 44 32.5 76.5t76.5 32.5t76 -32.5t32 -76.5t-32 -76.5t-76 -32.5 t-76.5 32.5t-32.5 76.5z" />
<glyph unicode="&#xc0;" horiz-adv-x="1193" d="M16 96q0 34 21.5 65t54.5 44q71 30 110 58.5t71.5 83.5t60.5 151l246 817q-12 6 -54 6h-16v31h180q69 0 78 -47l389 -1305h-178l-150 502h-460q-33 -114 -76 -279q-6 -26 -16 -54.5t-31 -71.5t-54.5 -70t-74.5 -27q-44 0 -72.5 28t-28.5 68zM369 1653q0 43 32.5 74.5 t77.5 31.5q96 0 170 -102.5t74 -222.5h-39q0 53 -39.5 84.5t-87.5 31.5q-10 0 -32.5 -3t-32.5 -3q-36 0 -62 12t-38 30.5t-17.5 35t-5.5 31.5zM377 532h442l-217 748z" />
<glyph unicode="&#xc1;" horiz-adv-x="1193" d="M16 96q0 34 21.5 65t54.5 44q71 30 110 58.5t71.5 83.5t60.5 151l246 817q-12 6 -54 6h-16v31h180q69 0 78 -47l389 -1305h-178l-150 502h-460q-33 -114 -76 -279q-6 -26 -16 -54.5t-31 -71.5t-54.5 -70t-74.5 -27q-44 0 -72.5 28t-28.5 68zM377 532h442l-217 748z M582 1434q0 78 32.5 153t89 123.5t119.5 48.5q46 0 78.5 -31.5t32.5 -74.5q0 -15 -5.5 -31.5t-17.5 -35t-38 -30.5t-62 -12q-10 0 -33 3t-33 3q-47 0 -85.5 -31.5t-38.5 -84.5h-39z" />
<glyph unicode="&#xc2;" horiz-adv-x="1193" d="M16 96q0 34 21.5 65t54.5 44q71 30 110 58.5t71.5 83.5t60.5 151l246 817q-12 6 -54 6h-16v31h180q69 0 78 -47l389 -1305h-178l-150 502h-460q-33 -114 -76 -279q-6 -26 -16 -54.5t-31 -71.5t-54.5 -70t-74.5 -27q-44 0 -72.5 28t-28.5 68zM307 1452l307 307l310 -307 l-31 -10l-127 125q-39 41 -63 58t-48 17q-21 0 -44 -17t-62 -58l-127 -125zM377 532h442l-217 748z" />
<glyph unicode="&#xc3;" horiz-adv-x="1193" d="M16 96q0 34 21.5 65t54.5 44q71 30 110 58.5t71.5 83.5t60.5 151l246 817q-12 6 -54 6h-16v31h180q69 0 78 -47l389 -1305h-178l-150 502h-460q-33 -114 -76 -279q-6 -26 -16 -54.5t-31 -71.5t-54.5 -70t-74.5 -27q-44 0 -72.5 28t-28.5 68zM199 1585q0 44 31.5 78.5 t109.5 34.5q71 0 162.5 -31t167 -62.5t108.5 -31.5q20 0 37 15t31 36.5t30 42.5t41.5 36t57.5 15q43 0 75.5 -31t32.5 -77q0 -43 -32 -78t-107 -35q-62 0 -156.5 31.5t-175 63.5t-110.5 32q-21 0 -39 -15t-32 -36t-29.5 -42.5t-40.5 -36.5t-56 -15q-42 0 -74 30.5t-32 75.5z M377 532h442l-217 748z" />
<glyph unicode="&#xc4;" horiz-adv-x="1193" d="M16 96q0 34 21.5 65t54.5 44q71 30 110 58.5t71.5 83.5t60.5 151l246 817q-12 6 -54 6h-16v31h180q69 0 78 -47l389 -1305h-178l-150 502h-460q-33 -114 -76 -279q-6 -26 -16 -54.5t-31 -71.5t-54.5 -70t-74.5 -27q-44 0 -72.5 28t-28.5 68zM293 1587q0 44 32 76.5 t76 32.5t76.5 -32.5t32.5 -76.5t-32.5 -76t-76.5 -32t-76 32t-32 76zM377 532h442l-217 748zM813 1587q0 44 32.5 76.5t76.5 32.5t76 -32.5t32 -76.5t-32 -76t-76 -32t-76.5 32t-32.5 76z" />
<glyph unicode="&#xc5;" horiz-adv-x="1193" d="M16 96q0 34 21.5 65t54.5 44q71 30 110 58.5t71.5 83.5t60.5 151l246 817q-12 6 -54 6h-16v31h180q69 0 78 -47l389 -1305h-178l-150 502h-460q-33 -114 -76 -279q-6 -26 -16 -54.5t-31 -71.5t-54.5 -70t-74.5 -27q-44 0 -72.5 28t-28.5 68zM377 532h442l-217 748z M496 1507q0 63 44 108.5t107 45.5t107.5 -45.5t44.5 -108.5t-44.5 -108t-107.5 -45t-107 45t-44 108zM526 1507q0 -51 35 -84.5t86 -33.5t86 33.5t35 84.5t-35 87t-86 36t-86 -36t-35 -87z" />
<glyph unicode="&#xc6;" horiz-adv-x="1755" d="M16 96q0 34 21.5 65t54.5 44q71 30 110 58.5t71.5 83.5t60.5 151l246 817q-12 6 -54 6h-16v31h344q21 -9 80 -9t204.5 11.5t200.5 11.5q35 0 54.5 -0.5t56.5 -3t59.5 -7t51 -14t45 -23t28 -35t11.5 -48.5q0 -45 -32 -77t-77 -32q-27 0 -52 13.5t-40 36.5q-54 78 -72 97 q-47 46 -135 51q-16 1 -35 1q-22 0 -67.5 -2.5t-103 -6.5t-85.5 -5v-451h314v-31h-314v-788q28 -1 139 -8.5t142 -7.5q57 0 94.5 8t67 31t46.5 44t48 68q32 49 90 49q46 0 78 -31t32 -77q0 -73 -73 -102t-207 -29q-67 0 -233 11t-224 11q-73 0 -92 -8h-168v31h27q69 0 69 30 v441h-413q-33 -114 -76 -279q-6 -26 -16 -54.5t-31 -71.5t-54.5 -70t-74.5 -27q-44 0 -72.5 28t-28.5 68zM377 532h405v758q0 31 -69 31h-27q-49 0 -62.5 -7.5t-21.5 -33.5z" />
<glyph unicode="&#xc7;" horiz-adv-x="1312" d="M47 676q0 137 53.5 262.5t144 216t216 144t262.5 53.5q158 0 258 -36.5t180 -96.5q27 -22 43 -38t31 -42t16 -54q0 -45 -31.5 -76.5t-76.5 -31.5q-44 0 -76.5 32t-32.5 76q0 104 -78.5 170t-232.5 66q-54 0 -108.5 -9.5t-117 -31t-115 -62t-96 -97.5t-68.5 -143.5 t-25 -193.5q0 -122 33.5 -230t88.5 -185t123.5 -138.5t141.5 -98.5t139 -56t119 -19q39 0 81 9.5t94 32.5t101 72.5t84 119.5l45 -47q-92 -112 -225 -176.5t-283 -67.5l-28 -98h12q67 0 104 -44.5t37 -121.5q0 -88 -46.5 -149.5t-108.5 -61.5q-46 0 -76.5 32.5t-30.5 75.5 q0 36 20.5 56t49 28t57.5 15.5t49.5 25t20.5 49.5q0 29 -24 46.5t-56 17.5q-14 0 -25 -4t-12 -4q-10 0 -10 12q0 8 2 12l32 113q-180 6 -330.5 97.5t-237.5 244.5t-87 334z" />
<glyph unicode="&#xc8;" horiz-adv-x="1140" d="M72 0v31h26q70 0 70 30v1229q0 31 -70 31h-26v31h168q21 -9 79 -9q72 0 204 11.5t202 11.5q35 0 54.5 -0.5t56.5 -3t59 -7t51 -14t45 -23t27.5 -35t11.5 -48.5q0 -45 -31.5 -77t-76.5 -32q-27 0 -52.5 13.5t-40.5 36.5q-5 7 -13 19q-48 71 -76 93q-50 39 -148 39 q-22 0 -62.5 -2.5t-99.5 -7t-98 -6.5v-451h313v-31h-313v-788q28 -1 138.5 -8.5t141.5 -7.5q64 0 110.5 15t69 37t41.5 48t31.5 48t36.5 37t57 15q46 0 78.5 -31.5t32.5 -76.5q0 -73 -73 -102t-208 -29q-92 0 -225 10q-135 12 -231 12q-73 0 -92 -8h-168zM289 1653 q0 43 31.5 74.5t78.5 31.5q96 0 169 -102.5t73 -222.5h-39q0 53 -39.5 84.5t-87.5 31.5q-9 0 -31 -3t-32 -3q-36 0 -62.5 12t-38.5 30.5t-17 35t-5 31.5z" />
<glyph unicode="&#xc9;" horiz-adv-x="1140" d="M72 0v31h26q70 0 70 30v1229q0 31 -70 31h-26v31h168q21 -9 79 -9q72 0 204 11.5t202 11.5q35 0 54.5 -0.5t56.5 -3t59 -7t51 -14t45 -23t27.5 -35t11.5 -48.5q0 -45 -31.5 -77t-76.5 -32q-27 0 -52.5 13.5t-40.5 36.5q-5 7 -13 19q-48 71 -76 93q-50 39 -148 39 q-22 0 -62.5 -2.5t-99.5 -7t-98 -6.5v-451h313v-31h-313v-788q28 -1 138.5 -8.5t141.5 -7.5q64 0 110.5 15t69 37t41.5 48t31.5 48t36.5 37t57 15q46 0 78.5 -31.5t32.5 -76.5q0 -73 -73 -102t-208 -29q-92 0 -225 10q-135 12 -231 12q-73 0 -92 -8h-168zM438 1434 q0 120 73 222.5t169 102.5q47 0 79 -31.5t32 -74.5q0 -15 -5 -31.5t-17 -35t-38.5 -30.5t-62.5 -12q-10 0 -32.5 3t-31.5 3q-48 0 -87.5 -31.5t-39.5 -84.5h-39z" />
<glyph unicode="&#xca;" horiz-adv-x="1140" d="M72 0v31h26q70 0 70 30v1229q0 31 -70 31h-26v31h168q21 -9 79 -9q72 0 204 11.5t202 11.5q35 0 54.5 -0.5t56.5 -3t59 -7t51 -14t45 -23t27.5 -35t11.5 -48.5q0 -45 -31.5 -77t-76.5 -32q-27 0 -52.5 13.5t-40.5 36.5q-5 7 -13 19q-48 71 -76 93q-50 39 -148 39 q-22 0 -62.5 -2.5t-99.5 -7t-98 -6.5v-451h313v-31h-313v-788q28 -1 138.5 -8.5t141.5 -7.5q64 0 110.5 15t69 37t41.5 48t31.5 48t36.5 37t57 15q46 0 78.5 -31.5t32.5 -76.5q0 -73 -73 -102t-208 -29q-92 0 -225 10q-135 12 -231 12q-73 0 -92 -8h-168zM252 1452l307 307 l309 -307l-32 -10l-125 125q-41 41 -65 58t-46 17q-36 0 -108 -75l-125 -125z" />
<glyph unicode="&#xcb;" horiz-adv-x="1140" d="M72 0v31h26q70 0 70 30v1229q0 31 -70 31h-26v31h168q21 -9 79 -9q72 0 204 11.5t202 11.5q35 0 54.5 -0.5t56.5 -3t59 -7t51 -14t45 -23t27.5 -35t11.5 -48.5q0 -45 -31.5 -77t-76.5 -32q-27 0 -52.5 13.5t-40.5 36.5q-5 7 -13 19q-48 71 -76 93q-50 39 -148 39 q-22 0 -62.5 -2.5t-99.5 -7t-98 -6.5v-451h313v-31h-313v-788q28 -1 138.5 -8.5t141.5 -7.5q64 0 110.5 15t69 37t41.5 48t31.5 48t36.5 37t57 15q46 0 78.5 -31.5t32.5 -76.5q0 -73 -73 -102t-208 -29q-92 0 -225 10q-135 12 -231 12q-73 0 -92 -8h-168zM193 1587 q0 44 32 76.5t76 32.5t76.5 -32.5t32.5 -76.5t-32.5 -76t-76.5 -32t-76 32t-32 76zM713 1587q0 44 32 76.5t76 32.5t76.5 -32.5t32.5 -76.5t-32.5 -76t-76.5 -32t-76 32t-32 76z" />
<glyph unicode="&#xcc;" horiz-adv-x="610" d="M57 168q0 44 32 75t77 31q46 0 77 -31t31 -75q0 -55 22 -81t54 -26q46 0 66 45.5t20 108.5q0 65 -24 119.5t-76 77.5v878q0 31 -70 31h-108v31h256q37 0 61.5 -17.5t24.5 -52.5v-952q0 -121 -20 -177t-58 -94q-59 -59 -160 -59q-96 0 -149 47q-53 57 -56 121zM147 1653 q0 43 32 74.5t79 31.5q96 0 169 -102.5t73 -222.5h-39q0 53 -39.5 84.5t-87.5 31.5q-9 0 -31.5 -3t-32.5 -3q-36 0 -62.5 12t-38.5 30.5t-17 35t-5 31.5z" />
<glyph unicode="&#xcd;" horiz-adv-x="610" d="M57 168q0 44 32 75t77 31q46 0 77 -31t31 -75q0 -55 22 -81t54 -26q46 0 66 45.5t20 108.5q0 65 -24 119.5t-76 77.5v878q0 31 -70 31h-108v31h256q37 0 61.5 -17.5t24.5 -52.5v-952q0 -121 -20 -177t-58 -94q-59 -59 -160 -59q-96 0 -149 47q-53 57 -56 121zM188 1434 q0 120 73 222.5t169 102.5q47 0 79 -31.5t32 -74.5q0 -15 -5 -31.5t-17 -35t-38.5 -30.5t-62.5 -12q-10 0 -32.5 3t-31.5 3q-48 0 -87.5 -31.5t-39.5 -84.5h-39z" />
<glyph unicode="&#xce;" horiz-adv-x="610" d="M-4 1452l307 307l309 -307l-32 -10l-125 125q-41 41 -65 58t-46 17q-36 0 -108 -75l-125 -125zM57 168q0 44 32 75t77 31q46 0 77 -31t31 -75q0 -55 22 -81t54 -26q46 0 66 45.5t20 108.5q0 65 -24 119.5t-76 77.5v878q0 31 -70 31h-108v31h256q37 0 61.5 -17.5 t24.5 -52.5v-952q0 -121 -20 -177t-58 -94q-59 -59 -160 -59q-96 0 -149 47q-53 57 -56 121z" />
<glyph unicode="&#xcf;" horiz-adv-x="610" d="M57 168q0 44 32 75t77 31q46 0 77 -31t31 -75q0 -55 22 -81t54 -26q86 0 86 154q0 65 -24 119.5t-76 77.5v878q0 31 -70 31h-108v31h256q37 0 61.5 -17.5t24.5 -52.5v-952q0 -75 -11 -131.5t-36.5 -103t-73.5 -71t-117 -24.5q-96 0 -149 47q-53 57 -56 121zM82 1587 q0 44 32.5 76.5t78.5 32.5q43 0 74.5 -32.5t31.5 -76.5t-31.5 -76t-74.5 -32q-46 0 -78.5 32t-32.5 76zM393 1587q0 44 32.5 76.5t78.5 32.5q43 0 74.5 -32.5t31.5 -76.5t-31.5 -76t-74.5 -32q-46 0 -78.5 32t-32.5 76z" />
<glyph unicode="&#xd0;" horiz-adv-x="1390" d="M72 0v29h26q27 0 48.5 7.5t21.5 20.5v660h-86v31h86v542q0 2 -1 7t-1 6q-21 18 -68 18h-26v31h168q19 -11 82 -11q76 0 188 11.5t188 11.5q177 0 327.5 -92t237.5 -247t87 -335q0 -145 -53.5 -274t-144.5 -220t-215.5 -143.5t-262.5 -52.5q-58 0 -108.5 10t-159.5 10 q-122 0 -166 -20h-168zM332 49q14 2 80 2q72 0 147.5 -10t126.5 -10q43 0 87.5 6t96.5 23t98.5 43t90 68.5t75.5 97.5t51 133t19 171q0 107 -25 204.5t-67.5 170.5t-98.5 135t-116.5 104.5t-123 72t-118 43.5t-100.5 14q-120 0 -170 -3t-53 -3v-563h364v-31h-364v-668z" />
<glyph unicode="&#xd1;" horiz-adv-x="1355" d="M16 106q0 33 12 54.5t31 34t42 24.5t45.5 31.5t41.5 48.5t31 82.5t12 126.5v737l-22 37q-18 37 -72 37h-8h-31v33h176q87 0 132 -74l692 -1124v872q0 190 37 260q9 22 35 44t65 22q45 0 76.5 -32t31.5 -77q0 -60 -53 -92q-35 -23 -52.5 -35.5t-40 -32.5t-32.5 -39 t-20 -48t-13.5 -65.5t-3.5 -86.5v-740l21 -34q20 -39 82 -39h31v-31h-179q-41 0 -73.5 18.5t-45.5 37.5l-12 18l-690 1122v-885q0 -39 -1.5 -68t-5.5 -68.5t-13 -68t-23.5 -55t-37.5 -40t-54 -13.5q-46 0 -78.5 31.5t-32.5 76.5zM289 1585q0 44 31.5 78.5t109.5 34.5 q71 0 162.5 -31t167 -62.5t108.5 -31.5q20 0 37 15t31 36.5t30 42.5t41.5 36t57.5 15q43 0 76 -31t33 -77q0 -43 -32.5 -78t-107.5 -35q-62 0 -156.5 31.5t-175 63.5t-110.5 32q-21 0 -39 -15t-32 -36t-29.5 -42.5t-40.5 -36.5t-56 -15q-42 0 -74 30.5t-32 75.5z" />
<glyph unicode="&#xd2;" d="M47 676q0 137 53.5 262.5t144 216t216 144t262.5 53.5q138 0 263.5 -53.5t215.5 -144t143.5 -216t53.5 -262.5t-53.5 -262.5t-143.5 -216t-215.5 -144t-263.5 -53.5q-137 0 -262.5 53.5t-216 144t-144 216t-53.5 262.5zM193 784q0 -105 25 -199.5t67 -166t98 -132.5 t116 -102.5t122.5 -70.5t117 -42.5t99.5 -13.5q53 0 108 15.5t111.5 54t99.5 95t70.5 146t27.5 199.5q0 146 -48 270.5t-121 206t-163 139.5t-172 83.5t-149 25.5q-83 0 -157 -34.5t-130 -97.5t-89 -160.5t-33 -215.5zM471 1653q0 43 32.5 74.5t78.5 31.5q96 0 169.5 -102.5 t73.5 -222.5h-39q0 53 -39.5 84.5t-87.5 31.5q-10 0 -32.5 -3t-32.5 -3q-36 0 -62 12t-38 30.5t-17.5 35t-5.5 31.5z" />
<glyph unicode="&#xd3;" d="M47 676q0 137 53.5 262.5t144 216t216 144t262.5 53.5q138 0 263.5 -53.5t215.5 -144t143.5 -216t53.5 -262.5t-53.5 -262.5t-143.5 -216t-215.5 -144t-263.5 -53.5q-137 0 -262.5 53.5t-216 144t-144 216t-53.5 262.5zM193 784q0 -105 25 -199.5t67 -166t98 -132.5 t116 -102.5t122.5 -70.5t117 -42.5t99.5 -13.5q53 0 108 15.5t111.5 54t99.5 95t70.5 146t27.5 199.5q0 146 -48 270.5t-121 206t-163 139.5t-172 83.5t-149 25.5q-83 0 -157 -34.5t-130 -97.5t-89 -160.5t-33 -215.5zM559 1434q0 120 73 222.5t169 102.5q47 0 78.5 -31.5 t31.5 -74.5q0 -15 -5 -31.5t-17 -35t-38.5 -30.5t-62.5 -12q-10 0 -32 3t-31 3q-48 0 -87.5 -31.5t-39.5 -84.5h-39z" />
<glyph unicode="&#xd4;" d="M47 676q0 137 53.5 262.5t144 216t216 144t262.5 53.5q138 0 263.5 -53.5t215.5 -144t143.5 -216t53.5 -262.5t-53.5 -262.5t-143.5 -216t-215.5 -144t-263.5 -53.5q-137 0 -262.5 53.5t-216 144t-144 216t-53.5 262.5zM193 784q0 -105 25 -199.5t67 -166t98 -132.5 t116 -102.5t122.5 -70.5t117 -42.5t99.5 -13.5q53 0 108 15.5t111.5 54t99.5 95t70.5 146t27.5 199.5q0 146 -48 270.5t-121 206t-163 139.5t-172 83.5t-149 25.5q-83 0 -157 -34.5t-130 -97.5t-89 -160.5t-33 -215.5zM414 1452l307 307l309 -307l-31 -10l-127 125 q-40 41 -63.5 58t-46.5 17q-21 0 -44.5 -17t-62.5 -58l-127 -125z" />
<glyph unicode="&#xd5;" d="M47 676q0 137 53.5 262.5t144 216t216 144t262.5 53.5q138 0 263.5 -53.5t215.5 -144t143.5 -216t53.5 -262.5t-53.5 -262.5t-143.5 -216t-215.5 -144t-263.5 -53.5q-137 0 -262.5 53.5t-216 144t-144 216t-53.5 262.5zM193 784q0 -105 25 -199.5t67 -166t98 -132.5 t116 -102.5t122.5 -70.5t117 -42.5t99.5 -13.5q53 0 108 15.5t111.5 54t99.5 95t70.5 146t27.5 199.5q0 146 -48 270.5t-121 206t-163 139.5t-172 83.5t-149 25.5q-83 0 -157 -34.5t-130 -97.5t-89 -160.5t-33 -215.5zM287 1585q0 44 31.5 78.5t109.5 34.5q71 0 162.5 -31 t167 -62.5t108.5 -31.5q20 0 37 15t31 36.5t30 42.5t41.5 36t57.5 15q43 0 75.5 -31t32.5 -77q0 -43 -32 -78t-107 -35q-62 0 -156.5 31.5t-175 63.5t-110.5 32q-21 0 -39 -15t-32 -36t-29.5 -42.5t-40.5 -36.5t-56 -15q-42 0 -74 30.5t-32 75.5z" />
<glyph unicode="&#xd6;" d="M47 676q0 137 53.5 262.5t144 216t216 144t262.5 53.5q138 0 263.5 -53.5t215.5 -144t143.5 -216t53.5 -262.5t-53.5 -262.5t-143.5 -216t-215.5 -144t-263.5 -53.5q-137 0 -262.5 53.5t-216 144t-144 216t-53.5 262.5zM193 784q0 -105 25 -199.5t67 -166t98 -132.5 t116 -102.5t122.5 -70.5t117 -42.5t99.5 -13.5q53 0 108 15.5t111.5 54t99.5 95t70.5 146t27.5 199.5q0 146 -48 270.5t-121 206t-163 139.5t-172 83.5t-149 25.5q-83 0 -157 -34.5t-130 -97.5t-89 -160.5t-33 -215.5zM354 1587q0 44 32.5 76.5t76.5 32.5t76 -32.5t32 -76.5 t-32 -76t-76 -32t-76.5 32t-32.5 76zM874 1587q0 44 32.5 76.5t76.5 32.5t76.5 -32.5t32.5 -76.5t-32.5 -76t-76.5 -32t-76.5 32t-32.5 76z" />
<glyph unicode="&#xd7;" horiz-adv-x="722" d="M61 457l160 159q64 67 64 117q0 51 -64 115l-160 160l21 20l160 -158q60 -63 116 -63q55 0 115 63l168 166l21 -22l-166 -166q-62 -62 -62 -115q0 -55 62 -117l166 -165l-21 -23l-166 166q-63 63 -117 63q-53 0 -116 -63l-160 -160z" />
<glyph unicode="&#xd8;" d="M47 676q0 137 53.5 262.5t144 216t216 144t262.5 53.5q142 0 274 -58l47 95h33l-53 -109q170 -85 272.5 -247t102.5 -357q0 -137 -53.5 -262.5t-143.5 -216t-215.5 -144t-263.5 -53.5q-159 0 -299 70l-57 -115h-33l63 129q-159 88 -254.5 246t-95.5 346zM193 784 q0 -187 74 -330.5t194 -240.5l477 961q-86 58 -175.5 88t-160.5 30q-83 0 -157 -34.5t-130 -97.5t-89 -160.5t-33 -215.5zM485 195q89 -67 185 -102.5t168 -35.5q53 0 108 15.5t111.5 54t99.5 95t70.5 146t27.5 199.5q0 199 -80.5 347t-211.5 243z" />
<glyph unicode="&#xd9;" horiz-adv-x="1171" d="M37 1321v31h172q38 0 63 -17t25 -53v-1139q0 -55 41 -55q25 0 55 18l488 259v901q0 33 17.5 59.5t57.5 26.5q38 0 63 -17t25 -53v-1200q0 -7 4.5 -14t10.5 -11.5t17 -9t17.5 -6.5t18 -5.5t14.5 -4.5v-31h-143q-46 0 -74 28t-28 74v228l-586 -312q-30 -18 -76 -18 q-37 0 -61.5 17t-24.5 53v1220q0 31 -70 31h-26zM348 1653q0 43 32 74.5t79 31.5q63 0 119.5 -48.5t89 -123.5t32.5 -153h-38q0 53 -39.5 84.5t-87.5 31.5q-9 0 -31.5 -3t-32.5 -3q-36 0 -62.5 12t-38.5 30.5t-17 35t-5 31.5z" />
<glyph unicode="&#xda;" horiz-adv-x="1171" d="M37 1321v31h172q38 0 63 -17t25 -53v-1139q0 -55 41 -55q25 0 55 18l488 259v901q0 33 17.5 59.5t57.5 26.5q38 0 63 -17t25 -53v-1200q0 -7 4.5 -14t10.5 -11.5t17 -9t17.5 -6.5t18 -5.5t14.5 -4.5v-31h-143q-46 0 -74 28t-28 74v228l-586 -312q-30 -18 -76 -18 q-37 0 -61.5 17t-24.5 53v1220q0 31 -70 31h-26zM518 1434q0 120 73 222.5t169 102.5q47 0 78.5 -31.5t31.5 -74.5q0 -15 -5 -31.5t-16.5 -35t-38 -30.5t-62.5 -12q-10 0 -32.5 3t-31.5 3q-48 0 -87.5 -31.5t-39.5 -84.5h-39z" />
<glyph unicode="&#xdb;" horiz-adv-x="1171" d="M37 1321v31h172q38 0 63 -17t25 -53v-1139q0 -55 41 -55q25 0 55 18l488 259v901q0 33 17.5 59.5t57.5 26.5q38 0 63 -17t25 -53v-1200q0 -7 4.5 -14t10.5 -11.5t17 -9t17.5 -6.5t18 -5.5t14.5 -4.5v-31h-143q-46 0 -74 28t-28 74v228l-586 -312q-30 -18 -76 -18 q-37 0 -61.5 17t-24.5 53v1220q0 31 -70 31h-26zM274 1452l308 307l309 -307l-33 -10l-125 125q-42 42 -65 58.5t-45 16.5q-37 0 -109 -75l-125 -125z" />
<glyph unicode="&#xdc;" horiz-adv-x="1171" d="M37 1321v31h172q38 0 63 -17t25 -53v-1139q0 -55 41 -55q25 0 55 18l488 259v901q0 33 17.5 59.5t57.5 26.5q38 0 63 -17t25 -53v-1200q0 -7 4.5 -14t10.5 -11.5t17 -9t17.5 -6.5t18 -5.5t14.5 -4.5v-31h-143q-46 0 -74 28t-28 74v228l-586 -312q-30 -18 -76 -18 q-37 0 -61.5 17t-24.5 53v1220q0 31 -70 31h-26zM213 1587q0 44 32.5 76.5t78.5 32.5q43 0 74.5 -32.5t31.5 -76.5t-31.5 -76t-74.5 -32q-46 0 -78.5 32t-32.5 76zM733 1587q0 44 32.5 76.5t78.5 32.5q43 0 74.5 -32.5t31.5 -76.5t-31.5 -76t-74.5 -32q-46 0 -78.5 32 t-32.5 76z" />
<glyph unicode="&#xdd;" horiz-adv-x="1148" d="M-55 1321v31h176q69 0 121 -72l311 -502l100 197q87 159 131 221q106 156 187 156q44 0 76 -32.5t32 -76.5t-32 -76t-76 -32q-21 -1 -49 -1t-41.5 -0.5t-33.5 -3.5t-32 -10t-29 -19.5t-33 -33t-36 -50t-45 -71.5l-101 -196v-750h-161v700l-359 584q-19 37 -78 37h-28z M479 1434q0 120 73 222.5t169 102.5q47 0 78.5 -31.5t31.5 -74.5q0 -15 -5 -31.5t-16.5 -35t-38 -30.5t-62.5 -12q-10 0 -32.5 3t-31.5 3q-48 0 -87.5 -31.5t-39.5 -84.5h-39z" />
<glyph unicode="&#xde;" horiz-adv-x="1159" d="M33 1321v31h178q37 0 61.5 -17.5t24.5 -52.5v-104q83 1 200.5 12.5t168.5 11.5q199 0 312.5 -134.5t113.5 -344.5q0 -98 -26 -185t-76.5 -156.5t-134 -110t-189.5 -40.5q-79 0 -145.5 24.5t-105 60.5t-59 73.5t-20.5 67.5q0 41 31 41q15 0 27.5 -24.5t27.5 -59t40 -69 t77.5 -59t126.5 -24.5q77 0 136.5 26t94.5 71t52.5 102t17.5 123q0 123 -57 255.5t-156.5 225t-206.5 92.5q-55 0 -250 -10v-1147h-164v1290q0 31 -70 31h-30z" />
<glyph unicode="&#xdf;" horiz-adv-x="1157" d="M-55 -324q0 44 32 75.5t76 31.5q46 0 77.5 -31.5t31.5 -75.5q0 -106 45 -106q29 0 52.5 37t23.5 117q0 65 -24.5 119t-76.5 77v1186q0 96 25.5 168.5t70.5 114t99.5 61.5t118.5 20q97 0 193.5 -41.5t160 -113.5t63.5 -152q0 -73 -52.5 -131.5t-149.5 -87.5 q-80 -23 -126 -65.5t-46 -128.5q0 -31 24.5 -58t79 -51.5t86.5 -36t101 -33.5q8 -3 12 -4q77 -25 116 -49q152 -92 152 -285q0 -39 -9.5 -72t-35 -64.5t-66 -53t-107 -34.5t-153.5 -13q-91 0 -161 19t-108 49t-56.5 62t-18.5 64q0 43 31.5 76t75.5 33q37 0 67.5 -23 t30.5 -79q0 -90 52.5 -128t148.5 -38q117 0 169 45.5t52 132.5q0 39 -7 63t-31 51t-72.5 50t-129.5 49q-57 19 -101.5 37.5t-91 46t-76.5 57.5t-49.5 71t-19.5 89q0 53 22 97t59.5 74t79.5 49.5t89 31.5q123 32 123 137q0 57 -54.5 132.5t-135 130.5t-146.5 55 q-135 0 -135 -246v-1346q0 -58 -6 -104.5t-22 -90t-42 -72.5t-66.5 -46t-94.5 -17q-67 0 -118.5 56t-51.5 112z" />
<glyph unicode="&#xe0;" horiz-adv-x="1091" d="M39 256q0 32 22.5 63.5t53.5 47.5l620 329q-35 65 -83.5 112.5t-99.5 71t-95.5 34t-85.5 10.5q-63 0 -87 -22t-24 -66q0 -23 7 -66t7 -57q0 -45 -32 -77t-76 -32q-45 0 -77 32t-32 77q0 31 31 75.5t83.5 88.5t135.5 75t172 31q100 0 190.5 -39t157 -104.5t105.5 -156.5 t39 -191v-410q0 -7 4.5 -14t10.5 -11.5t17 -9t17.5 -6.5t18 -5.5t14.5 -4.5v-31h-144q-46 0 -74 28t-28 74v27q-145 -129 -336 -129q-91 0 -168 22t-124 53.5t-80 68.5t-46.5 65.5t-13.5 46.5zM197 319q0 -51 54.5 -111.5t145.5 -104.5t181 -44q58 0 103 20t72 52t44 76 t23.5 87.5t6.5 92.5q0 84 -20 162t-55 123l-508 -273q-21 -10 -34 -32.5t-13 -47.5zM279 1372q0 44 31 75.5t79 31.5q63 0 119.5 -49t88.5 -124t32 -153h-39q0 53 -40 85t-87 32q-7 0 -29 -3t-33 -3q-30 0 -53 8t-36 20t-20.5 28t-10 28t-2.5 24z" />
<glyph unicode="&#xe1;" horiz-adv-x="1091" d="M39 256q0 32 22.5 63.5t53.5 47.5l620 329q-35 65 -83.5 112.5t-99.5 71t-95.5 34t-85.5 10.5q-63 0 -87 -22t-24 -66q0 -23 7 -66t7 -57q0 -45 -32 -77t-76 -32q-45 0 -77 32t-32 77q0 31 31 75.5t83.5 88.5t135.5 75t172 31q100 0 190.5 -39t157 -104.5t105.5 -156.5 t39 -191v-410q0 -7 4.5 -14t10.5 -11.5t17 -9t17.5 -6.5t18 -5.5t14.5 -4.5v-31h-144q-46 0 -74 28t-28 74v27q-145 -129 -336 -129q-91 0 -168 22t-124 53.5t-80 68.5t-46.5 65.5t-13.5 46.5zM197 319q0 -51 54.5 -111.5t145.5 -104.5t181 -44q58 0 103 20t72 52t44 76 t23.5 87.5t6.5 92.5q0 84 -20 162t-55 123l-508 -273q-21 -10 -34 -32.5t-13 -47.5zM397 1153q0 78 32.5 153t89.5 124t120 49q48 0 79.5 -31.5t31.5 -75.5q0 -15 -4.5 -31t-16.5 -35t-38.5 -30.5t-63.5 -11.5q-11 0 -33 3t-29 3q-48 0 -88.5 -32t-40.5 -85h-39z" />
<glyph unicode="&#xe2;" horiz-adv-x="1091" d="M39 256q0 32 22.5 63.5t53.5 47.5l620 329q-35 65 -83.5 112.5t-99.5 71t-95.5 34t-85.5 10.5q-63 0 -87 -22t-24 -66q0 -23 7 -66t7 -57q0 -45 -32 -77t-76 -32q-45 0 -77 32t-32 77q0 31 31 75.5t83.5 88.5t135.5 75t172 31q100 0 190.5 -39t157 -104.5t105.5 -156.5 t39 -191v-410q0 -7 4.5 -14t10.5 -11.5t17 -9t17.5 -6.5t18 -5.5t14.5 -4.5v-31h-144q-46 0 -74 28t-28 74v27q-145 -129 -336 -129q-91 0 -168 22t-124 53.5t-80 68.5t-46.5 65.5t-13.5 46.5zM172 1171l307 308l309 -308l-34 -10l-123 125q-44 42 -67.5 59t-43.5 17 q-37 0 -110 -76l-123 -125zM197 319q0 -51 54.5 -111.5t145.5 -104.5t181 -44q58 0 103 20t72 52t44 76t23.5 87.5t6.5 92.5q0 84 -20 162t-55 123l-508 -273q-21 -10 -34 -32.5t-13 -47.5z" />
<glyph unicode="&#xe3;" horiz-adv-x="1091" d="M39 256q0 32 22.5 63.5t53.5 47.5l620 329q-35 65 -83.5 112.5t-99.5 71t-95.5 34t-85.5 10.5q-63 0 -87 -22t-24 -66q0 -23 7 -66t7 -57q0 -45 -32 -77t-76 -32q-45 0 -77 32t-32 77q0 31 31 75.5t83.5 88.5t135.5 75t172 31q100 0 190.5 -39t157 -104.5t105.5 -156.5 t39 -191v-410q0 -7 4.5 -14t10.5 -11.5t17 -9t17.5 -6.5t18 -5.5t14.5 -4.5v-31h-144q-46 0 -74 28t-28 74v27q-145 -129 -336 -129q-91 0 -168 22t-124 53.5t-80 68.5t-46.5 65.5t-13.5 46.5zM63 1305q0 44 32 78t110 34q71 0 162.5 -31.5t167 -62.5t108.5 -31 q24 0 45.5 23t36.5 50t45.5 50t69.5 23q43 0 75.5 -31.5t32.5 -77.5q0 -43 -32 -77.5t-107 -34.5q-62 0 -156.5 31.5t-175 63t-110.5 31.5q-21 0 -39 -15t-32 -36.5t-29.5 -42.5t-40.5 -36t-56 -15q-42 0 -74.5 31t-32.5 76zM197 319q0 -51 54.5 -111.5t145.5 -104.5 t181 -44q58 0 103 20t72 52t44 76t23.5 87.5t6.5 92.5q0 84 -20 162t-55 123l-508 -273q-21 -10 -34 -32.5t-13 -47.5z" />
<glyph unicode="&#xe4;" horiz-adv-x="1091" d="M39 256q0 32 22.5 63.5t53.5 47.5l620 329q-35 65 -83.5 112.5t-99.5 71t-95.5 34t-85.5 10.5q-63 0 -87 -22t-24 -66q0 -23 7 -66t7 -57q0 -45 -32 -77t-76 -32q-45 0 -77 32t-32 77q0 31 31 75.5t83.5 88.5t135.5 75t172 31q100 0 190.5 -39t157 -104.5t105.5 -156.5 t39 -191v-410q0 -7 4.5 -14t10.5 -11.5t17 -9t17.5 -6.5t18 -5.5t14.5 -4.5v-31h-144q-46 0 -74 28t-28 74v27q-145 -129 -336 -129q-91 0 -168 22t-124 53.5t-80 68.5t-46.5 65.5t-13.5 46.5zM158 1307q0 44 32 76t76 32t76.5 -32t32.5 -76t-32.5 -76.5t-76.5 -32.5 t-76 32.5t-32 76.5zM197 319q0 -51 54.5 -111.5t145.5 -104.5t181 -44q58 0 103 20t72 52t44 76t23.5 87.5t6.5 92.5q0 84 -20 162t-55 123l-508 -273q-21 -10 -34 -32.5t-13 -47.5zM678 1307q0 44 32 76t76 32t76.5 -32t32.5 -76t-32.5 -76.5t-76.5 -32.5t-76 32.5 t-32 76.5z" />
<glyph unicode="&#xe5;" horiz-adv-x="1091" d="M39 256q0 32 22.5 63.5t53.5 47.5l620 329q-35 65 -83.5 112.5t-99.5 71t-95.5 34t-85.5 10.5q-63 0 -87 -22t-24 -66q0 -23 7 -66t7 -57q0 -45 -32 -77t-76 -32q-45 0 -77 32t-32 77q0 31 31 75.5t83.5 88.5t135.5 75t172 31q100 0 190.5 -39t157 -104.5t105.5 -156.5 t39 -191v-410q0 -7 4.5 -14t10.5 -11.5t17 -9t17.5 -6.5t18 -5.5t14.5 -4.5v-31h-144q-46 0 -74 28t-28 74v27q-145 -129 -336 -129q-91 0 -168 22t-124 53.5t-80 68.5t-46.5 65.5t-13.5 46.5zM197 319q0 -51 54.5 -111.5t145.5 -104.5t181 -44q58 0 103 20t72 52t44 76 t23.5 87.5t6.5 92.5q0 84 -20 162t-55 123l-508 -273q-21 -10 -34 -32.5t-13 -47.5zM330 1184q0 63 44 108t107 45t107.5 -45t44.5 -108t-44.5 -108.5t-107.5 -45.5t-107 45.5t-44 108.5zM360 1184q0 -51 35 -85t86 -34t86 34t35 85t-35 87t-86 36t-86 -36t-35 -87z" />
<glyph unicode="&#xe6;" horiz-adv-x="1783" d="M39 256q0 32 22.5 63.5t53.5 47.5l620 329q-35 65 -83.5 112.5t-99.5 71t-95.5 34t-85.5 10.5q-63 0 -87 -22t-24 -66q0 -23 7 -66t7 -57q0 -45 -32 -77t-76 -32q-45 0 -77 32t-32 77q0 31 31 75.5t83.5 88.5t135.5 75t172 31q122 0 227.5 -56t174.5 -153l18 -26 q67 107 180.5 171t245.5 64q90 0 166.5 -22t124 -53.5t81 -68.5t47 -66t13.5 -46q0 -32 -22.5 -63.5t-53.5 -47.5l-620 -331q68 -91 178 -156.5t205 -65.5q45 0 90 21t78.5 52.5t55 57.5t34.5 48l20 -29q-67 -99 -173.5 -156t-231.5 -57q-122 0 -227.5 55.5t-174.5 151.5 l-112 -68q-12 -7 -58.5 -36.5t-67.5 -40.5t-60 -29.5t-74 -25.5t-72 -7q-91 0 -168 22t-124 53.5t-80 68.5t-46.5 65.5t-13.5 46.5zM197 319q0 -45 51.5 -101t138.5 -97t174 -41q61 0 109 20.5t77 53t47.5 76.5t25.5 86t7 87q0 78 -20 151t-55 118l-508 -273 q-21 -10 -34 -32.5t-13 -47.5zM969 594q0 -73 19 -153.5t56 -129.5l508 271q21 10 34 32.5t13 47.5q0 46 -56.5 107.5t-150 109t-182.5 47.5q-52 0 -93.5 -19t-68.5 -51t-45 -75.5t-26 -89.5t-8 -97z" />
<glyph unicode="&#xe7;" horiz-adv-x="970" d="M27 492q0 133 67.5 246t182 179t247.5 66q196 0 322 -94q27 -22 43 -37.5t31 -41.5t16 -54q0 -44 -32.5 -76.5t-76.5 -32.5t-76 32.5t-32 76.5q0 94 -55 144t-140 52q-70 0 -109 -9t-116 -46q-63 -35 -96 -117.5t-33 -185.5q0 -110 37 -203t92.5 -151.5t122.5 -100 t124 -59t99 -17.5q80 0 155 62t103 117l21 -27q-65 -97 -169 -154.5t-225 -60.5l-28 -98h12q67 0 104 -44.5t37 -121.5q0 -88 -46.5 -149.5t-108.5 -61.5q-46 0 -76.5 32.5t-30.5 75.5q0 36 20.5 56t49.5 28t57.5 15.5t49 25t20.5 49.5q0 29 -24 46.5t-56 17.5q-14 0 -25 -4 t-12 -4q-10 0 -10 12q0 8 2 12l33 113q-129 6 -237.5 73t-171 178t-62.5 241z" />
<glyph unicode="&#xe8;" horiz-adv-x="987" d="M29 492q0 133 67.5 246t182.5 179t249 66q90 0 167 -22t124 -53.5t80.5 -68.5t47.5 -66t14 -46q0 -32 -22.5 -63.5t-53.5 -47.5l-621 -331q72 -95 173.5 -158.5t209.5 -63.5q45 0 89.5 20.5t78 51.5t55 57.5t35.5 49.5l21 -29q-67 -99 -174 -156t-232 -57 q-133 0 -246.5 66.5t-179 180t-65.5 245.5zM172 594q0 -72 19.5 -153t56.5 -130l508 271q21 10 34 32.5t13 47.5q0 34 -31 79t-81.5 86t-124 69t-148.5 28q-64 0 -112.5 -27t-77 -74t-42.5 -104.5t-14 -124.5zM258 1372q0 44 31.5 75.5t79.5 31.5q63 0 119 -49t88 -124 t32 -153h-39q0 53 -40 85t-87 32q-8 0 -29 -3t-32 -3q-37 0 -63.5 11.5t-38.5 30.5t-16.5 35t-4.5 31z" />
<glyph unicode="&#xe9;" horiz-adv-x="987" d="M29 492q0 133 67.5 246t182.5 179t249 66q90 0 167 -22t124 -53.5t80.5 -68.5t47.5 -66t14 -46q0 -32 -22.5 -63.5t-53.5 -47.5l-621 -331q72 -95 173.5 -158.5t209.5 -63.5q45 0 89.5 20.5t78 51.5t55 57.5t35.5 49.5l21 -29q-67 -99 -174 -156t-232 -57 q-133 0 -246.5 66.5t-179 180t-65.5 245.5zM172 594q0 -72 19.5 -153t56.5 -130l508 271q21 10 34 32.5t13 47.5q0 34 -31 79t-81.5 86t-124 69t-148.5 28q-64 0 -112.5 -27t-77 -74t-42.5 -104.5t-14 -124.5zM422 1153q0 78 32.5 153t89.5 124t120 49q45 0 77.5 -32 t32.5 -75q0 -15 -5.5 -31.5t-17.5 -34.5t-38 -30t-62 -12q-10 0 -32.5 3t-32.5 3q-47 0 -86 -32t-39 -85h-39z" />
<glyph unicode="&#xea;" horiz-adv-x="987" d="M29 492q0 133 67.5 246t182.5 179t249 66q90 0 167 -22t124 -53.5t80.5 -68.5t47.5 -66t14 -46q0 -32 -22.5 -63.5t-53.5 -47.5l-621 -331q72 -95 173.5 -158.5t209.5 -63.5q45 0 89.5 20.5t78 51.5t55 57.5t35.5 49.5l21 -29q-67 -99 -174 -156t-232 -57 q-133 0 -246.5 66.5t-179 180t-65.5 245.5zM172 594q0 -72 19.5 -153t56.5 -130l508 271q21 10 34 32.5t13 47.5q0 34 -31 79t-81.5 86t-124 69t-148.5 28q-64 0 -112.5 -27t-77 -74t-42.5 -104.5t-14 -124.5zM221 1171l307 308l310 -308l-35 -10l-123 125q-44 42 -67.5 59 t-43.5 17q-37 0 -110 -76l-123 -125z" />
<glyph unicode="&#xeb;" horiz-adv-x="987" d="M29 492q0 133 67.5 246t182.5 179t249 66q90 0 167 -22t124 -53.5t80.5 -68.5t47.5 -66t14 -46q0 -32 -22.5 -63.5t-53.5 -47.5l-621 -331q72 -95 173.5 -158.5t209.5 -63.5q45 0 89.5 20.5t78 51.5t55 57.5t35.5 49.5l21 -29q-67 -99 -174 -156t-232 -57 q-133 0 -246.5 66.5t-179 180t-65.5 245.5zM127 1307q0 44 32.5 76t76.5 32t76 -32t32 -76t-32 -76.5t-76 -32.5t-76.5 32.5t-32.5 76.5zM172 594q0 -72 19.5 -153t56.5 -130l508 271q21 10 34 32.5t13 47.5q0 34 -31 79t-81.5 86t-124 69t-148.5 28q-64 0 -112.5 -27 t-77 -74t-42.5 -104.5t-14 -124.5zM647 1307q0 44 32.5 76t76.5 32t76 -32t32 -76t-32 -76.5t-76 -32.5t-76.5 32.5t-32.5 76.5z" />
<glyph unicode="&#xec;" horiz-adv-x="489" d="M20 1372q0 44 31.5 75.5t79.5 31.5q63 0 119.5 -49t88.5 -124t32 -153h-39q0 53 -40 85t-87 32q-7 0 -29 -3t-33 -3q-37 0 -63.5 11.5t-38.5 30.5t-16.5 35t-4.5 31zM35 852v35l155 82q30 18 76 18q38 0 63 -16.5t25 -52.5v-836q0 -7 4.5 -14t10.5 -11.5t17 -9t17.5 -6.5 t18 -5.5t14.5 -4.5v-31h-143q-46 0 -74.5 28t-28.5 74v740q0 57 -43 57q-27 0 -57 -18z" />
<glyph unicode="&#xed;" horiz-adv-x="489" d="M35 852v35l155 82q30 18 76 18q38 0 63 -16.5t25 -52.5v-836q0 -7 4.5 -14t10.5 -11.5t17 -9t17.5 -6.5t18 -5.5t14.5 -4.5v-31h-143q-46 0 -74.5 28t-28.5 74v740q0 57 -43 57q-27 0 -57 -18zM86 1153q0 78 32.5 153t89.5 124t120 49q48 0 79 -31.5t31 -75.5 q0 -15 -4.5 -31t-16.5 -35t-38.5 -30.5t-63.5 -11.5q-11 0 -32 3t-29 3q-48 0 -88.5 -32t-40.5 -85h-39z" />
<glyph unicode="&#xee;" horiz-adv-x="489" d="M-45 1171l307 308l309 -308l-30 -10l-127 125q-40 42 -64 59t-47 17q-20 0 -43 -17t-63 -59l-127 -125zM35 852v35l155 82q30 18 76 18q38 0 63 -16.5t25 -52.5v-836q0 -7 4.5 -14t10.5 -11.5t17 -9t17.5 -6.5t18 -5.5t14.5 -4.5v-31h-143q-46 0 -74.5 28t-28.5 74v740 q0 57 -43 57q-27 0 -57 -18z" />
<glyph unicode="&#xef;" horiz-adv-x="489" d="M-20 1307q0 44 32 76t76 32t76.5 -32t32.5 -76t-32.5 -76.5t-76.5 -32.5t-76 32.5t-32 76.5zM35 852v35l155 82q30 18 76 18q38 0 63 -16.5t25 -52.5v-836q0 -7 4.5 -14t10.5 -11.5t17 -9t17.5 -6.5t18 -5.5t14.5 -4.5v-31h-143q-46 0 -74.5 28t-28.5 74v740q0 57 -43 57 q-27 0 -57 -18zM293 1307q0 44 32 76t76 32t76.5 -32t32.5 -76t-32.5 -76.5t-76.5 -32.5t-76 32.5t-32 76.5z" />
<glyph unicode="&#xf0;" horiz-adv-x="1062" d="M29 492q0 133 65.5 246t178.5 179t247 66q190 0 332 -129q-1 78 -45.5 188t-112.5 209l-133 -106l-20 22l135 109q-128 170 -232 170q-46 0 -111.5 -15.5t-111.5 -50.5l-6 33q110 64 240 64q181 0 319 -123l152 121l18 -23l-147 -119q93 -93 154 -225.5t61 -276.5v-350 q-3 -132 -70 -242.5t-179 -174.5t-243 -64q-134 0 -247 66t-178.5 179t-65.5 247zM174 590q0 -113 33 -205t82.5 -148.5t111.5 -95t116.5 -54t100.5 -15.5q56 0 99 23t69 60t43 88t23 101.5t6 106.5q0 83 -14.5 152.5t-38 117t-56.5 84t-67.5 58t-74 35t-72.5 18t-66 4.5 q-295 0 -295 -330z" />
<glyph unicode="&#xf1;" horiz-adv-x="1112" d="M16 848v35l156 82q35 18 78 18q37 0 61.5 -17t24.5 -53v-211l491 263q35 18 78 18q37 0 61.5 -17t24.5 -53v-831q0 -7 4.5 -14t10.5 -11.5t17 -9t17.5 -6.5t18 -5.5t14.5 -4.5v-31h-143q-46 0 -74.5 28t-28.5 74v736q0 57 -43 57q-28 0 -55 -18l-393 -209v-668h-164v838 q0 57 -43 57q-28 0 -55 -18zM143 1305q0 44 32 78t110 34q71 0 162.5 -31.5t167 -62.5t108.5 -31q24 0 45.5 23t36.5 50t45.5 50t69.5 23q43 0 75.5 -31.5t32.5 -77.5q0 -43 -32 -77.5t-107 -34.5q-62 0 -156.5 31.5t-175.5 63t-111 31.5q-21 0 -39 -15t-32 -36.5 t-29.5 -42.5t-40 -36t-55.5 -15q-42 0 -74.5 31t-32.5 76z" />
<glyph unicode="&#xf2;" horiz-adv-x="1062" d="M29 492q0 133 65.5 246t178.5 179t247 66q133 0 246.5 -66t179.5 -179t66 -246q0 -100 -39 -191.5t-105.5 -157t-157 -104.5t-190.5 -39q-134 0 -247 66t-178.5 179t-65.5 247zM170 596q0 -109 37 -202t92 -152t121.5 -101t124 -60t100.5 -18q59 0 104 29.5t70 78.5 t37 103.5t12 112.5q0 106 -34.5 197.5t-87 151.5t-117 103t-124 62t-108.5 19q-52 0 -93 -21t-65.5 -54t-40.5 -77.5t-22 -86.5t-6 -85zM279 1372q0 44 31 75.5t79 31.5q63 0 119.5 -49t88.5 -124t32 -153h-39q0 53 -40 85t-87 32q-7 0 -29 -3t-33 -3q-30 0 -53 8t-36 20 t-20.5 28t-10 28t-2.5 24z" />
<glyph unicode="&#xf3;" horiz-adv-x="1062" d="M29 492q0 133 65.5 246t178.5 179t247 66q133 0 246.5 -66t179.5 -179t66 -246q0 -100 -39 -191.5t-105.5 -157t-157 -104.5t-190.5 -39q-134 0 -247 66t-178.5 179t-65.5 247zM170 596q0 -109 37 -202t92 -152t121.5 -101t124 -60t100.5 -18q59 0 104 29.5t70 78.5 t37 103.5t12 112.5q0 106 -34.5 197.5t-87 151.5t-117 103t-124 62t-108.5 19q-52 0 -93 -21t-65.5 -54t-40.5 -77.5t-22 -86.5t-6 -85zM397 1153q0 78 32.5 153t89.5 124t120 49q48 0 79.5 -31.5t31.5 -75.5q0 -15 -4.5 -31t-16.5 -35t-38.5 -30.5t-63.5 -11.5q-11 0 -33 3 t-29 3q-48 0 -88.5 -32t-40.5 -85h-39z" />
<glyph unicode="&#xf4;" horiz-adv-x="1062" d="M29 492q0 133 65.5 246t178.5 179t247 66q133 0 246.5 -66t179.5 -179t66 -246q0 -100 -39 -191.5t-105.5 -157t-157 -104.5t-190.5 -39q-134 0 -247 66t-178.5 179t-65.5 247zM170 596q0 -109 37 -202t92 -152t121.5 -101t124 -60t100.5 -18q59 0 104 29.5t70 78.5 t37 103.5t12 112.5q0 106 -34.5 197.5t-87 151.5t-117 103t-124 62t-108.5 19q-52 0 -93 -21t-65.5 -54t-40.5 -77.5t-22 -86.5t-6 -85zM209 1171l307 308l309 -308l-30 -10l-127 125q-40 42 -64 59t-47 17q-20 0 -43 -17t-63 -59l-127 -125z" />
<glyph unicode="&#xf5;" horiz-adv-x="1062" d="M29 492q0 133 65.5 246t178.5 179t247 66q133 0 246.5 -66t179.5 -179t66 -246q0 -100 -39 -191.5t-105.5 -157t-157 -104.5t-190.5 -39q-134 0 -247 66t-178.5 179t-65.5 247zM68 1305q0 44 31.5 78t109.5 34q71 0 162.5 -31.5t167 -62.5t108.5 -31q24 0 45.5 23 t36.5 50t45.5 50t69.5 23q43 0 75.5 -31.5t32.5 -77.5q0 -43 -32 -77.5t-107 -34.5q-62 0 -156.5 31.5t-175 63t-110.5 31.5q-21 0 -39 -15t-32 -36.5t-29.5 -42.5t-40.5 -36t-56 -15q-42 0 -74 31t-32 76zM170 596q0 -109 37 -202t92 -152t121.5 -101t124 -60t100.5 -18 q59 0 104 29.5t70 78.5t37 103.5t12 112.5q0 106 -34.5 197.5t-87 151.5t-117 103t-124 62t-108.5 19q-52 0 -93 -21t-65.5 -54t-40.5 -77.5t-22 -86.5t-6 -85z" />
<glyph unicode="&#xf6;" horiz-adv-x="1062" d="M29 492q0 133 65.5 246t178.5 179t247 66q133 0 246.5 -66t179.5 -179t66 -246q0 -100 -39 -191.5t-105.5 -157t-157 -104.5t-190.5 -39q-134 0 -247 66t-178.5 179t-65.5 247zM160 1307q0 44 32 76t76 32t76.5 -32t32.5 -76t-32.5 -76.5t-76.5 -32.5t-76 32.5t-32 76.5z M170 596q0 -109 37 -202t92 -152t121.5 -101t124 -60t100.5 -18q59 0 104 29.5t70 78.5t37 103.5t12 112.5q0 106 -34.5 197.5t-87 151.5t-117 103t-124 62t-108.5 19q-52 0 -93 -21t-65.5 -54t-40.5 -77.5t-22 -86.5t-6 -85zM680 1307q0 44 32 76t76 32t76.5 -32t32.5 -76 t-32.5 -76.5t-76.5 -32.5t-76 32.5t-32 76.5z" />
<glyph unicode="&#xf7;" horiz-adv-x="778" d="M82 717v31h614v-31h-614zM264 377q0 44 32.5 76t76.5 32t76 -32t32 -76t-32 -76.5t-76 -32.5t-76.5 32.5t-32.5 76.5zM264 1090q0 44 32.5 76t76.5 32t76 -32t32 -76t-32 -76.5t-76 -32.5t-76.5 32.5t-32.5 76.5z" />
<glyph unicode="&#xf8;" horiz-adv-x="1062" d="M29 492q0 133 65.5 246t178.5 179t247 66q115 0 211 -47l45 88h33l-51 -102q116 -64 185 -179t69 -251q0 -100 -39 -191.5t-105.5 -157t-157 -104.5t-190.5 -39q-105 0 -198 41l-39 -82h-35l47 96q-120 61 -193 178.5t-73 258.5zM170 596q0 -253 188 -412l312 627 q-67 53 -141 81t-132 28q-52 0 -93 -21t-65.5 -54t-40.5 -77.5t-22 -86.5t-6 -85zM385 166q66 -50 137.5 -76.5t122.5 -26.5q59 0 104 29.5t70 78.5t37 103.5t12 112.5q0 245 -174 404z" />
<glyph unicode="&#xf9;" horiz-adv-x="1112" d="M16 846v35l156 84q30 18 78 18h6q35 0 57.5 -17.5t22.5 -52.5v-770q0 -55 41 -55q27 0 57 18l393 209v582q0 32 19 59t59 27q86 0 86 -70v-831q0 -9 5.5 -16t16.5 -12.5t19.5 -8.5t23 -7t17.5 -5v-33h-143q-46 0 -74.5 28t-28.5 74v179l-491 -263q-34 -18 -78 -18 q-37 0 -61.5 17t-24.5 53v770q0 55 -43 55q-25 0 -55 -18zM311 1372q0 43 32 75t79 32q63 0 120 -49t89.5 -124t32.5 -153h-39q0 53 -40 85t-87 32q-9 0 -31.5 -3t-32.5 -3q-68 0 -95.5 35.5t-27.5 72.5z" />
<glyph unicode="&#xfa;" horiz-adv-x="1112" d="M16 846v35l156 84q30 18 78 18h6q35 0 57.5 -17.5t22.5 -52.5v-770q0 -55 41 -55q27 0 57 18l393 209v582q0 32 19 59t59 27q86 0 86 -70v-831q0 -9 5.5 -16t16.5 -12.5t19.5 -8.5t23 -7t17.5 -5v-33h-143q-46 0 -74.5 28t-28.5 74v179l-491 -263q-34 -18 -78 -18 q-37 0 -61.5 17t-24.5 53v770q0 55 -43 55q-25 0 -55 -18zM522 1153q0 78 32.5 153t89.5 124t120 49q46 0 78 -31.5t32 -75.5q0 -15 -5 -31t-16.5 -34.5t-38 -30.5t-62.5 -12q-10 0 -32.5 3t-31.5 3q-47 0 -87 -32t-40 -85h-39z" />
<glyph unicode="&#xfb;" horiz-adv-x="1112" d="M16 846v35l156 84q30 18 78 18h6q35 0 57.5 -17.5t22.5 -52.5v-770q0 -55 41 -55q27 0 57 18l393 209v582q0 32 19 59t59 27q86 0 86 -70v-831q0 -9 5.5 -16t16.5 -12.5t19.5 -8.5t23 -7t17.5 -5v-33h-143q-46 0 -74.5 28t-28.5 74v179l-491 -263q-34 -18 -78 -18 q-37 0 -61.5 17t-24.5 53v770q0 55 -43 55q-25 0 -55 -18zM238 1171l307 308l309 -308l-33 -10l-125 125q-42 42 -65 59t-45 17q-36 0 -109 -76l-125 -125z" />
<glyph unicode="&#xfc;" horiz-adv-x="1112" d="M16 846v35l156 84q30 18 78 18h6q35 0 57.5 -17.5t22.5 -52.5v-770q0 -55 41 -55q27 0 57 18l393 209v582q0 32 19 59t59 27q86 0 86 -70v-831q0 -9 5.5 -16t16.5 -12.5t19.5 -8.5t23 -7t17.5 -5v-33h-143q-46 0 -74.5 28t-28.5 74v179l-491 -263q-34 -18 -78 -18 q-37 0 -61.5 17t-24.5 53v770q0 55 -43 55q-25 0 -55 -18zM195 1307q0 44 32 76t76 32t76.5 -32t32.5 -76t-32.5 -76.5t-76.5 -32.5t-76 32.5t-32 76.5zM715 1307q0 44 32 76t76 32t76.5 -32t32.5 -76t-32.5 -76.5t-76.5 -32.5t-76 32.5t-32 76.5z" />
<glyph unicode="&#xfd;" horiz-adv-x="1058" d="M18 846v35l154 82q38 20 78 20q37 0 61.5 -17t24.5 -53v-770q0 -57 43 -57q25 0 55 18l393 211v582q0 32 19 59t59 27q37 0 61.5 -17t24.5 -53v-239q0 -143 -1 -235t-5 -207.5t-12 -188t-22.5 -157t-35 -135.5t-51 -103t-70 -79t-91 -44t-115.5 -17q-143 0 -259 72 t-116 174q0 44 32.5 75.5t76.5 31.5t76 -31.5t32 -75.5q0 -36 2 -60t11 -56t25.5 -51.5t48 -33.5t75.5 -14q42 0 76.5 9t58.5 28.5t41.5 40t28 53.5t17.5 58t9.5 64t3 61.5t0.5 60.5v367l-491 -265q-32 -16 -76 -16q-38 0 -63 17t-25 53v768q0 55 -43 55q-26 0 -55 -16z M496 1153q0 78 32.5 153t89 124t119.5 49q48 0 79.5 -31.5t31.5 -75.5q0 -15 -4.5 -31t-16.5 -35t-38.5 -30.5t-63.5 -11.5q-11 0 -32 3t-29 3q-48 0 -88.5 -32t-40.5 -85h-39z" />
<glyph unicode="&#xfe;" horiz-adv-x="1183" d="M16 1337v35l156 84q44 19 78 19q37 0 61.5 -18t24.5 -54v-545q64 58 160 91.5t192 33.5q139 0 241.5 -65.5t153 -172.5t50.5 -239q0 -237 -118.5 -371.5t-312.5 -134.5q-99 0 -203 53t-163 142v-687h-164v1821q0 55 -43 55q-26 0 -55 -16zM313 528q0 -91 16.5 -166 t43 -125t63 -88.5t73 -59.5t77.5 -34.5t71.5 -17.5t59.5 -4q68 0 121 22t85 57t53 83t28.5 95t7.5 99q0 107 -35 198.5t-88.5 151t-118.5 102t-123.5 61t-105.5 18.5q-54 0 -95.5 -25.5t-66 -65t-40 -93.5t-21 -104t-5.5 -104z" />
<glyph unicode="&#xff;" horiz-adv-x="1058" d="M18 846v35l154 82q38 20 78 20q37 0 61.5 -17t24.5 -53v-770q0 -57 43 -57q25 0 55 18l393 211v582q0 32 19 59t59 27q37 0 61.5 -17t24.5 -53v-239q0 -143 -1 -235t-5 -207.5t-12 -188t-22.5 -157t-35 -135.5t-51 -103t-70 -79t-91 -44t-115.5 -17q-143 0 -259 72 t-116 174q0 44 32.5 75.5t76.5 31.5t76 -31.5t32 -75.5q0 -36 2 -60t11 -56t25.5 -51.5t48 -33.5t75.5 -14q42 0 76.5 9t58.5 28.5t41.5 40t28 53.5t17.5 58t9.5 64t3 61.5t0.5 60.5v367l-491 -265q-32 -16 -76 -16q-38 0 -63 17t-25 53v768q0 55 -43 55q-26 0 -55 -16z M209 1307q0 44 32 76t76 32t76.5 -32t32.5 -76t-32.5 -76.5t-76.5 -32.5t-76 32.5t-32 76.5zM729 1307q0 44 32.5 76t76.5 32t76 -32t32 -76t-32 -76.5t-76 -32.5t-76.5 32.5t-32.5 76.5z" />
<glyph unicode="&#x152;" horiz-adv-x="2205" d="M47 676q0 137 53.5 262.5t144 216t216 144t262.5 53.5q151 0 283.5 -62t226.5 -170v170q0 31 -70 31h-26v31h168q21 -9 79 -9q41 0 203.5 11.5t202.5 11.5q35 0 54.5 -0.5t56.5 -3t59 -7t51 -14t45 -23t27.5 -35t11.5 -48.5q0 -45 -31.5 -77t-76.5 -32q-35 0 -59 14.5 t-36.5 37t-30.5 48t-39 48t-64.5 37t-104.5 14.5q-22 0 -67.5 -2.5t-103 -6.5t-85.5 -5v-451h313v-31h-313v-788q28 -1 138.5 -8.5t141.5 -7.5q57 0 94.5 8t67 31t46.5 44t48 68q32 49 90 49q46 0 78.5 -31.5t32.5 -76.5q0 -63 -62.5 -97t-216.5 -34q-79 0 -227 10 q-135 12 -231 12q-73 0 -92 -8h-168v31h26q70 0 70 30v170q-94 -108 -226.5 -169.5t-283.5 -61.5q-137 0 -262.5 53.5t-216 144t-144 216t-53.5 262.5zM193 784q0 -122 33.5 -230t89 -185t124 -138.5t142 -98.5t139.5 -56t119 -19t107 15.5t110.5 54t99.5 95t70.5 146 t27.5 199.5q0 123 -33.5 231t-89.5 185t-125 138t-143 97.5t-140.5 55t-121.5 18.5q-83 0 -156.5 -34t-130 -96.5t-89.5 -160t-33 -217.5z" />
<glyph unicode="&#x153;" horiz-adv-x="1820" d="M29 492q0 133 65.5 246t178.5 179t247 66q129 0 240 -63t178 -170q67 106 180.5 169.5t243.5 63.5q90 0 166.5 -22t124 -53.5t81 -68.5t47 -66t13.5 -46q0 -32 -22.5 -63.5t-53.5 -47.5l-620 -331q68 -91 178 -156.5t205 -65.5q45 0 90 21t78.5 52.5t55 57.5t34.5 48 l20 -29q-67 -99 -173.5 -156t-231.5 -57q-122 0 -227.5 55.5t-174.5 151.5l-14 24q-67 -106 -177.5 -168.5t-240.5 -62.5q-134 0 -247 66t-178.5 179t-65.5 247zM170 596q0 -110 37 -203t92 -152t121.5 -100.5t124 -59.5t100.5 -18q59 0 104 29.5t70 78.5t37 103.5t12 112.5 q0 125 -46.5 230t-118 168.5t-151.5 98t-153 34.5q-65 0 -112.5 -30.5t-71.5 -81t-34.5 -102.5t-10.5 -108zM1004 604q0 -81 21 -164t56 -129l508 271q21 10 34 32.5t13 47.5q0 47 -56.5 108.5t-149.5 108.5t-183 47q-108 0 -175.5 -89.5t-67.5 -232.5z" />
<glyph unicode="&#x178;" horiz-adv-x="1148" d="M-55 1321v31h176q69 0 121 -72l311 -502l100 197q87 159 131 221q106 156 187 156q44 0 76 -32.5t32 -76.5t-32 -76t-76 -32q-21 -1 -49 -1t-41.5 -0.5t-33.5 -3.5t-32 -10t-29 -19.5t-33 -33t-36 -50t-45 -71.5l-101 -196v-750h-161v700l-359 584q-19 37 -78 37h-28z M160 1587q0 45 32 77t78 32q43 0 75 -32.5t32 -76.5t-32 -76t-75 -32q-46 0 -78 32t-32 76zM680 1587q0 44 32.5 76.5t78.5 32.5q43 0 74.5 -32.5t31.5 -76.5t-31.5 -76t-74.5 -32q-46 0 -78.5 32t-32.5 76z" />
<glyph unicode="&#x2c6;" horiz-adv-x="698" d="M41 1208l307 308l309 -308l-32 -10l-125 125q-42 42 -65.5 59t-45.5 17q-21 0 -45 -17.5t-63 -58.5l-125 -125z" />
<glyph unicode="&#x2dc;" horiz-adv-x="1007" d="M61 1366q0 44 32 78.5t110 34.5q71 0 162.5 -31.5t167 -62.5t108.5 -31q20 0 37 15t31 36t30 42.5t41.5 36.5t57.5 15q43 0 75.5 -31t32.5 -77q0 -43 -32 -78t-107 -35q-62 0 -156.5 32t-175 63.5t-110.5 31.5q-21 0 -39 -15t-32 -36.5t-29.5 -42.5t-40.5 -36t-56 -15 q-42 0 -74.5 30.5t-32.5 75.5z" />
<glyph unicode="&#x2000;" horiz-adv-x="879" />
<glyph unicode="&#x2001;" horiz-adv-x="1759" />
<glyph unicode="&#x2002;" horiz-adv-x="879" />
<glyph unicode="&#x2003;" horiz-adv-x="1759" />
<glyph unicode="&#x2004;" horiz-adv-x="586" />
<glyph unicode="&#x2005;" horiz-adv-x="439" />
<glyph unicode="&#x2006;" horiz-adv-x="293" />
<glyph unicode="&#x2007;" horiz-adv-x="293" />
<glyph unicode="&#x2008;" horiz-adv-x="219" />
<glyph unicode="&#x2009;" horiz-adv-x="351" />
<glyph unicode="&#x200a;" horiz-adv-x="97" />
<glyph unicode="&#x2010;" horiz-adv-x="614" d="M82 717v31h450v-31h-450z" />
<glyph unicode="&#x2011;" horiz-adv-x="614" d="M82 717v31h450v-31h-450z" />
<glyph unicode="&#x2012;" horiz-adv-x="614" d="M82 717v31h450v-31h-450z" />
<glyph unicode="&#x2013;" horiz-adv-x="1188" d="M82 717v31h1024v-31h-1024z" />
<glyph unicode="&#x2014;" horiz-adv-x="2212" d="M82 717v31h2048v-31h-2048z" />
<glyph unicode="&#x2018;" horiz-adv-x="333" d="M41 1169q0 29 5 64t19.5 80.5t37.5 84.5t64 72t93 46l6 -31q-69 -19 -108 -66.5t-39 -99.5q0 -48 34 -84t93 -74q47 -30 47 -90q0 -48 -33 -78t-74 -30q-60 0 -102.5 58t-42.5 148z" />
<glyph unicode="&#x2019;" horiz-adv-x="333" d="M41 1407q0 48 32.5 78.5t73.5 30.5q60 0 103 -58.5t43 -148.5q0 -29 -5 -64t-19.5 -80.5t-37.5 -84t-64 -71.5t-93 -46l-6 30q69 19 108 66.5t39 99.5q0 48 -34 84t-93 74q-47 30 -47 90z" />
<glyph unicode="&#x201a;" horiz-adv-x="333" d="M41 59q0 48 32.5 78.5t73.5 30.5q60 0 103 -58.5t43 -148.5q0 -29 -5 -64t-19.5 -80.5t-37.5 -84t-64 -71.5t-93 -46l-6 31q69 19 108 66.5t39 99.5q0 48 -33.5 83.5t-93.5 73.5q-47 30 -47 90z" />
<glyph unicode="&#x201c;" horiz-adv-x="661" d="M41 1169q0 29 5 64t19.5 80.5t37.5 84.5t64 72t93 46l6 -31q-69 -19 -108 -66.5t-39 -99.5q0 -48 34 -84t93 -74q47 -30 47 -90q0 -48 -33 -78t-74 -30q-60 0 -102.5 58t-42.5 148zM369 1169q0 29 5 64t19.5 80.5t37.5 84.5t64 72t93 46l6 -31q-69 -19 -108.5 -66.5 t-39.5 -99.5q0 -48 34 -84t93 -74q48 -31 48 -90q0 -48 -33 -78t-74 -30q-60 0 -102.5 58t-42.5 148z" />
<glyph unicode="&#x201d;" horiz-adv-x="661" d="M41 1407q0 48 32.5 78.5t73.5 30.5q60 0 103 -58.5t43 -148.5q0 -29 -5 -64t-19.5 -80.5t-37.5 -84t-64 -71.5t-93 -46l-6 30q69 19 108 66.5t39 99.5q0 48 -34 84t-93 74q-47 30 -47 90zM369 1407q0 48 32.5 78.5t73.5 30.5q60 0 103 -58.5t43 -148.5q0 -38 -9.5 -84 t-31 -101.5t-68.5 -100t-111 -60.5l-6 30q69 19 108.5 66.5t39.5 99.5q0 48 -34 84t-93 74q-47 30 -47 90z" />
<glyph unicode="&#x201e;" horiz-adv-x="661" d="M41 59q0 48 32.5 78.5t73.5 30.5q60 0 103 -58.5t43 -148.5q0 -29 -5 -64t-19.5 -80.5t-37.5 -84t-64 -71.5t-93 -46l-6 31q69 19 108 66.5t39 99.5q0 48 -33.5 83.5t-93.5 73.5q-47 30 -47 90zM369 59q0 48 32.5 78.5t73.5 30.5q60 0 103 -58.5t43 -148.5 q0 -38 -9.5 -84t-31 -101.5t-68.5 -100t-111 -60.5l-6 31q69 19 108.5 66.5t39.5 99.5q0 48 -33.5 83.5t-93.5 73.5q-47 30 -47 90z" />
<glyph unicode="&#x2026;" horiz-adv-x="1161" d="M41 59q0 44 32.5 76.5t76.5 32.5t76 -32.5t32 -76.5t-32 -76t-76 -32t-76.5 32t-32.5 76zM471 59q0 44 32.5 76.5t76.5 32.5t76 -32.5t32 -76.5t-32 -76t-76 -32t-76.5 32t-32.5 76zM903 59q0 44 32.5 76.5t76.5 32.5t76 -32.5t32 -76.5t-32 -76t-76 -32t-76.5 32 t-32.5 76z" />
<glyph unicode="&#x202f;" horiz-adv-x="351" />
<glyph unicode="&#x205f;" horiz-adv-x="439" />
<glyph unicode="&#x20ac;" horiz-adv-x="1230" d="M41 553l20 51h52q-4 50 -4 72q0 27 2 41h-70l20 51h54q21 161 108.5 296t213.5 211.5t261 76.5q87 0 165 -22.5t121 -47.5t95 -63q27 -22 43 -38t31 -42t16 -54q0 -45 -31.5 -76.5t-76.5 -31.5q-44 0 -76.5 32t-32.5 76q0 104 -65 170t-189 66q-54 0 -108 -12.5 t-116.5 -49t-109.5 -94t-78.5 -156t-31.5 -225.5v-16h422l-21 -51h-399q2 -45 14 -113h406l-21 -51h-372q26 -99 74.5 -183.5t104 -140.5t117 -96t115.5 -58t97 -18q32 0 68 9.5t82.5 32.5t93.5 72.5t81 119.5l45 -47q-93 -114 -215.5 -179t-247.5 -65q-130 0 -253.5 72.5 t-211 200t-114.5 280.5h-78z" />
</font>
</defs>
</svg>
